<svg xmlns="http://www.w3.org/2000/svg" viewBox="0 0 673.5 82.7" width="674" height="83"><defs><style>.cls-1,.cls-2,.cls-3{fill:none;}.cls-1{stroke:#929497;stroke-miterlimit:10;}.cls-3,.cls-4,.cls-5{fill-rule:evenodd;}.cls-4{fill:#8b8b8b;}.cls-5,.cls-6{fill:#fff;}</style></defs><title>logo</title><path class="cls-1" d="M410.9 80.7V.5"/><path class="cls-2" d="M199.4 18.9a8.7 8.7 0 0 0-2.3 0 5.3 5.3 0 0 0-3.5 2.2 5.5 5.5 0 0 0-.3 5.4 5.4 5.4 0 0 0 5.9 2.7 5 5 0 0 0 3.1-1.9 3.2 3.2 0 0 0 .8-1.6h.3a5.3 5.3 0 0 0 3.4-2.8 5.7 5.7 0 0 0 .5-3.1 5 5 0 0 0-1.2-3 5.9 5.9 0 0 0-5.7-1.9 2.3 2.3 0 0 0-1 .3zm0 52.9v7.7h6.6V34.9h-12.2v36.9zM146.6 42a4.9 4.9 0 0 1 1.8 2.8 12.7 12.7 0 0 1 .4 3.6 3.5 3.5 0 0 1 0 .4h-2v4.1h-2.4l-5.3.2-2.5.2-3.8.8a16.7 16.7 0 0 0-5.4 2.6 11.4 11.4 0 0 0-4.2 5.6 13.1 13.1 0 0 0-.7 5.3 15.4 15.4 0 0 0 .3 2.4 12.7 12.7 0 0 0 5.1 7.6 16.3 16.3 0 0 0 8.3 2.9 18.3 18.3 0 0 0 3.8-.1 17.2 17.2 0 0 0 4.5-1.2l2.1-1a56.1 56.1 0 0 0 0-5.8h-.1a12.3 12.3 0 0 1-7.7 1.6 10.2 10.2 0 0 1-3.5-1 7.2 7.2 0 0 1-4-7.7 6.4 6.4 0 0 1 3.6-5.1 13.1 13.1 0 0 1 4.8-1.4l4.7-.3h2.2v-3.7h2.2v6.5a11.9 11.9 0 0 1-2.2 2.3 52.7 52.7 0 0 0 .1 6.5 13.4 13.4 0 0 0 2.2-1.8v3.6h8.4V50.4a30.4 30.4 0 0 0-.2-3.7 19.4 19.4 0 0 0-.6-3.1 12.6 12.6 0 0 0-2.6-4.8 12.4 12.4 0 0 0-5-3.5 9.7 9.7 0 0 0-2.3-.7h-.1a29.8 29.8 0 0 0-4.9-.5l-3.6.2-4.1.7a34.3 34.3 0 0 0-8.2 3l-1.2.7 2.7 6 1.4-.8a28.4 28.4 0 0 1 7.1-2.6 25.3 25.3 0 0 1 4.3-.5 18.9 18.9 0 0 1 3.1.2 9 9 0 0 1 3.5 1zm30.1 22.7V42.1h6.8v-7.2h-7v-8.4h-8.1v8.4h-3.2c-.1 1.2-.1 6.9.1 7.3h2.5v20.4c0 1.3.1 2.6.1 4a32.5 32.5 0 0 0 .3 4 14.5 14.5 0 0 0 .8 3.4 10.2 10.2 0 0 0 3.8 4.8 11.1 11.1 0 0 0 6.1 1.8h2.6l2-.3c.1-1.2.1-7 0-7.4a10.7 10.7 0 0 1-3.2-.2c.2-.3.5-.2.8-.3a12.5 12.5 0 0 0 2.7-.9c0-.6-.1-1.2-.1-1.7l-.3-3.2c-.1-.6-.1-1.3-.1-1.9a3.9 3.9 0 0 0-.1-.5l-.9.5a7 7 0 0 1-4.4.7zM67.8 34.1h-2.7a11.9 11.9 0 0 0-4.4 1.2 12.2 12.2 0 0 0-5.5 5.7l-.2.3v-6.4h-9v44.6h9V72h4.7V60.4s.1-5.2.1-7.9a18.6 18.6 0 0 1 .3-3.4 11.8 11.8 0 0 1 1.4-3.8 6.1 6.1 0 0 1 2.9-2.7l.9-.3a8.7 8.7 0 0 1 2.6 0 28 28 0 0 1 4.8 1.4v-1.6l.3-3.7.2-2.6v-.5a29.3 29.3 0 0 0-5.4-1.2zm-40.5 7.8h.8a11.8 11.8 0 0 1 3.5 1.1 12.9 12.9 0 0 1 3.9 2.9l.8.7c1-2.3 2.2-4.5 3.2-6.8L38 38.4a13.1 13.1 0 0 0-2.9-2 18.1 18.1 0 0 0-4.1-1.5 14.7 14.7 0 0 0-3.6-.5 30.3 30.3 0 0 0-4.1-.4h-2l-2.8.3a22.3 22.3 0 0 0-5.6 1.8A21.9 21.9 0 0 0 2.6 46a23.1 23.1 0 0 0-2.1 6 22.4 22.4 0 0 0-.5 4.1c0 1.2 0 2.3.1 3.5a20.4 20.4 0 0 0 .7 4.2 23 23 0 0 0 2.4 6 21.4 21.4 0 0 0 6.5 7.1 21.9 21.9 0 0 0 11.1 3.8 30.8 30.8 0 0 0 4.9-.1l1.7-.2v-7.8l2-.3a18.3 18.3 0 0 0 5.4-1.7 14.6 14.6 0 0 0 3.3-2.3l1.6-1.6-3.3-6.8a13.9 13.9 0 0 1-9.2 5v7.5a14.2 14.2 0 0 1-3.2.4h-2.2a12.1 12.1 0 0 1-3-.6 13.1 13.1 0 0 1-7.1-5.4A17.1 17.1 0 0 1 9 58.1a19.4 19.4 0 0 1 .2-3.8 15.7 15.7 0 0 1 1.5-4.9 13.8 13.8 0 0 1 6.9-6.7 13.3 13.3 0 0 1 4.5-1.1 19.8 19.8 0 0 1 4.3.2zm79.8 29.9h-.2a21.2 21.2 0 0 1-6.6 1.6 19 19 0 0 1-5.4-.2 12.8 12.8 0 0 1-7.3-4.2 14.1 14.1 0 0 1-2.8-5.3 21.5 21.5 0 0 1-.7-3.8 5.3 5.3 0 0 1 0-.6h23.2v-3.2h9v-.2a19.1 19.1 0 0 0 .2-2c0-.8.1-1.6.1-2.4a28.1 28.1 0 0 0-.3-3.1 17.5 17.5 0 0 0-1.5-4.6 15.9 15.9 0 0 0-3.9-5.2 16.1 16.1 0 0 0-3.7-2.4l-.4-.2a22.6 22.6 0 0 0-8.9-2h-1.7l-2.2.2a21.5 21.5 0 0 0-5.9 1.7 21 21 0 0 0-8.9 7.3 22 22 0 0 0-3.2 6.6 24.3 24.3 0 0 0-1 6.2c0 1.2 0 2.4.1 3.6a29 29 0 0 0 .4 3.4 23.4 23.4 0 0 0 2.8 7.5 19.9 19.9 0 0 0 5.7 6.2 21.7 21.7 0 0 0 11.5 3.9 31.4 31.4 0 0 0 5.5-.2 34.4 34.4 0 0 0 4.7-.8l1.7-.5v-6.9h.3a20.3 20.3 0 0 0 4.6-2.1 20.1 20.1 0 0 0 2.9-2.3l.8-.8c-.5-.8-3.8-5.4-4.1-5.7a27.6 27.6 0 0 1-4.5 2.8v7c-.2.3-.1.5-.3.6z"/><path class="cls-3" d="M107.1 45.4a7.2 7.2 0 0 1 1.2 4.2h-1v3.2a2.5 2.5 0 0 1-.1.5h-23a3.1 3.1 0 0 1 .1-1.4 15.1 15.1 0 0 1 1.5-4.4 12.4 12.4 0 0 1 6.2-6 10.4 10.4 0 0 1 3.1-.8l2.1-.2a12.2 12.2 0 0 1 7.2 2.3 13.6 13.6 0 0 1 2.7 2.6z"/><path class="cls-2" d="M203.1 25.6h.3a5.3 5.3 0 0 0 3.4-2.8 5.7 5.7 0 0 0 .5-3.1 5.1 5.1 0 0 0-1.2-3 5.9 5.9 0 0 0-5.7-1.9 2.3 2.3 0 0 0-1 .3V19a8.7 8.7 0 0 0-2.3 0 5.3 5.3 0 0 0-3.5 2.2 5.5 5.5 0 0 0-.3 5.4 5.4 5.4 0 0 0 5.9 2.7 5 5 0 0 0 3.1-1.9 3.2 3.2 0 0 0 .8-1.8zm-3.7 46.2v7.6h6.6V34.9h-12.2v36.9zm34.4-6.8l-.2-.2-2-4.6-1.7-4.1-2.2-5.1-2-4.5-2.2-5.2-1.8-4.3-.9-2.1c-.8-.1-8.7-.1-9.1 0l15.8 36.9h6.1v7.7h2.6l18.4-44.7h-9.2l-3.2 8.4-3.2 8.2-3.8 10zm36.8 7.7v7.5l2.5.3a35.7 35.7 0 0 0 6.7-.3 29.4 29.4 0 0 0 6.5-1.7 22.7 22.7 0 0 0 7-4.3l.8-.8-3.7-5.1h-.1l-.3.2a25.8 25.8 0 0 1-5.3 3 21.2 21.2 0 0 1-4.7 1.4l-2.7.3a16.5 16.5 0 0 1-4.5-.2l-2.1-.4v-8a10.1 10.1 0 0 1-6.3-9h6.3v3.5c1.5.1 24.6.1 25-.1s.2-1.5.2-2.3a26.1 26.1 0 0 0-.3-5.9 21.9 21.9 0 0 0-2.4-6.9 19.2 19.2 0 0 0-5.9-6.5 21.1 21.1 0 0 0-11.8-3.4l-3.5.2-1.4.3a17.8 17.8 0 0 0-10.3 5.6 18.5 18.5 0 0 0-3.3 5.3 21.8 21.8 0 0 0-1.5 7.9c0 .3 0 .7.1 1V56a18 18 0 0 0 .5 3.1 17.8 17.8 0 0 0 3.5 7.3 17.2 17.2 0 0 0 5.3 4.4 22.4 22.4 0 0 0 5.7 1.9zM307.9 35c-.1 1.3-.1 44.2.1 44.6h19.9a19.6 19.6 0 0 0 3.9-.5 14 14 0 0 0 6.1-2.9 10.9 10.9 0 0 0 3.9-7.7 13.1 13.1 0 0 0-.1-3.1 9.7 9.7 0 0 0-1.1-3.2 10.3 10.3 0 0 0-4.4-4.2 16.1 16.1 0 0 0-4.6-1.5l-.8-.2 1.5-.5a6.7 6.7 0 0 0 3.1-1.8 10.6 10.6 0 0 0 3.1-7.2 15.7 15.7 0 0 0-.1-2.2 8.6 8.6 0 0 0-.7-2.8 10.2 10.2 0 0 0-5.9-5.4 20.2 20.2 0 0 0-5.8-1.2h-18.1zm75 4.1l-.4-.4a16.8 16.8 0 0 0-4.3-2.5 26.4 26.4 0 0 0-9.7-1.9h-1.9l-2.5.2a23.8 23.8 0 0 0-4.8 1.2 21 21 0 0 0-12 10.9 24.9 24.9 0 0 0-2.3 10.2 32.2 32.2 0 0 0 .2 3.3 21.3 21.3 0 0 0 .3 2.5 22.7 22.7 0 0 0 2.6 7.1 20.6 20.6 0 0 0 5.5 6.1 21.5 21.5 0 0 0 4.9 2.7 25.8 25.8 0 0 0 8.7 1.7h2.5a22.7 22.7 0 0 0 4-.5 19.7 19.7 0 0 0 8.7-4.1l1.3-1.2-3.1-7.4-.2.2a14.8 14.8 0 0 1-3.4 2.3 18.1 18.1 0 0 1-9.7 1.8 14.5 14.5 0 0 1-3.2-.6 12.7 12.7 0 0 1-6-3.9 14.8 14.8 0 0 1-3.4-9.2c0-.7 0-1.4.1-2.1a15.2 15.2 0 0 1 1-4.8 12.7 12.7 0 0 1 4.5-5.9 13.6 13.6 0 0 1 7.1-2.5 15.4 15.4 0 0 1 4.2.2 18.7 18.7 0 0 1 7.4 3.2l1.2.9z"/><path class="cls-4" d="M146.7 54.8v-6h2a3.5 3.5 0 0 0 0-.4 12.7 12.7 0 0 0-.4-3.6 4.9 4.9 0 0 0-1.8-2.8v-7.5a9.7 9.7 0 0 1 2.3.7 12.4 12.4 0 0 1 5 3.5 12.6 12.6 0 0 1 2.6 4.8 19.4 19.4 0 0 1 .6 3.1 30.4 30.4 0 0 1 .2 3.7v21.5H149v-3.6a13.4 13.4 0 0 1-2.2 1.8 52.7 52.7 0 0 1-.1-6.5 11.9 11.9 0 0 0 2.2-2.3v-6.6zm52.8-19.9v36.4c0 .2.1.4-.1.5h-5.6V34.9h5.7zm-92.4 10.5a1.1 1.1 0 0 0 .1-.3v-8.9a16.1 16.1 0 0 1 3.7 2.4 15.9 15.9 0 0 1 3.9 5.2 17.5 17.5 0 0 1 1.5 4.6 28.1 28.1 0 0 1 .3 3.1c.1.8-.1 1.6-.1 2.4a19.1 19.1 0 0 1-.2 2v.2h-9a1.6 1.6 0 0 1-.1-.4v-2.4a2.5 2.5 0 0 0 .1-.5v-3.2h1a7.2 7.2 0 0 0-1.2-4.2zM55 72a1.9 1.9 0 0 1-.1-.3V56.1a18.6 18.6 0 0 1 .2-2l.2-1.6a17.9 17.9 0 0 1 .9-3.6 11.3 11.3 0 0 1 1.3-2.7 9.3 9.3 0 0 1 2.9-2.7 9 9 0 0 1 2.2-1 7.2 7.2 0 0 1 2.4-.3h.2l-.9.3a6.1 6.1 0 0 0-2.9 2.7A11.8 11.8 0 0 0 60 49a18.6 18.6 0 0 0-.3 3.4c0 2.6-.1 5.2-.1 7.9V72zm-27.7.6v-7.7a13.9 13.9 0 0 0 9.2-5l3.3 6.8-1.6 1.6a14.6 14.6 0 0 1-3.3 2.3 18.3 18.3 0 0 1-5.4 1.7zm0-30.7v-7.5a14.7 14.7 0 0 1 3.6.5 18.1 18.1 0 0 1 4.1 1.5 13.1 13.1 0 0 1 2.9 2l1.5 1.5c-1 2.3-2.2 4.5-3.2 6.8l-.8-.7a12.9 12.9 0 0 0-3.8-3 11.8 11.8 0 0 0-3.5-1zm149.1-7h-8.1v-8.4h8.1v8.4zm23-16v4.6s.1 1.2.1 1.8h.4a7.1 7.1 0 0 0 2.2.2h.9a3.2 3.2 0 0 1-.8 1.6 5 5 0 0 1-3.1 1.9 5.4 5.4 0 0 1-5.9-2.7 5.5 5.5 0 0 1 .3-5.4 5.3 5.3 0 0 1 3.5-2.2 8.7 8.7 0 0 1 2.4.2zm-92.1 53.3v-.5c.2-.2.1-.4.1-.6v-7a27.6 27.6 0 0 0 4.5-2.8c.3.2 3.7 4.9 4.1 5.7l-.8.8a20.1 20.1 0 0 1-2.9 2.3 20.3 20.3 0 0 1-4.6 2.1zm72.8.3a3.8 3.8 0 0 1-2-1.3 6.8 6.8 0 0 1-1.2-3 18.1 18.1 0 0 1-.2-1.9 10.2 10.2 0 0 1-.1-1.6l1 .3a7 7 0 0 0 4.4-.7l.9-.5a3.9 3.9 0 0 1 .1.5c0 .6.1 1.3.1 1.9l.3 3.2c0 .6.1 1.2.1 1.7a12.5 12.5 0 0 1-2.7.9c-.1.3-.5.3-.7.5zM67.8 42.3v-8.2a29.3 29.3 0 0 1 5.4 1.2v.5l-.2 2.6-.3 3.7v1.6a28 28 0 0 0-4.9-1.4zm202.8-7.9v6.8l-.6.3a8.3 8.3 0 0 0-2.6 1.8 10.6 10.6 0 0 0-2.8 4.8c-.1.4-.2.8-.2 1.2h6.3v6.3h-6.3a10.1 10.1 0 0 0 6.3 9v8h-.1a22.4 22.4 0 0 1-5.5-2 17.2 17.2 0 0 1-5.3-4.4 17.8 17.8 0 0 1-3.5-7.3 18 18 0 0 1-.5-3.1v-1.5c0-.3-.1-.7-.1-1a21.8 21.8 0 0 1 1.5-7.9 18.5 18.5 0 0 1 3.3-5.3 17.8 17.8 0 0 1 10.3-5.6zM233.8 65a7.6 7.6 0 0 0-.1.8v6h-6.1l-15.8-36.9h9.1l.9 2.1 1.8 4.4 2.2 5.2 2 4.5 2.2 5.1 1.7 4.1 2 4.6z"/><path class="cls-5" d="M107.3 56.1v3.3H84.1a5.3 5.3 0 0 0 0 .6 21.5 21.5 0 0 0 .7 3.8 14.1 14.1 0 0 0 2.8 5.2 12.8 12.8 0 0 0 7.3 4.2 19 19 0 0 0 5.4.2 21.2 21.2 0 0 0 6.6-1.6h.2v7.3l-1.7.5a34.4 34.4 0 0 1-4.7.8 31.4 31.4 0 0 1-5.5.2A21.7 21.7 0 0 1 84 76.7a19.9 19.9 0 0 1-5.6-6.2 23.4 23.4 0 0 1-2.8-7.5 29 29 0 0 1-.4-3.4c-.1-1.2-.1-2.4-.1-3.6a24.3 24.3 0 0 1 1-6.2 22 22 0 0 1 3.1-6.6 21 21 0 0 1 8.9-7.3 21.5 21.5 0 0 1 5.9-1.7l2.2-.2h1.7a22.6 22.6 0 0 1 8.9 2l.4.2v8.9a1.1 1.1 0 0 1-.1.3 13.6 13.6 0 0 0-2.7-2.6 12.2 12.2 0 0 0-7.2-2.3l-2.1.2a10.4 10.4 0 0 0-3.1.8 12.4 12.4 0 0 0-6.2 5.9 15.1 15.1 0 0 0-1.5 4.4 3.1 3.1 0 0 0-.1 1.4h23v2.4a1.6 1.6 0 0 0 .1.5zm-80 16.5v7.6l-1.7.2a30.8 30.8 0 0 1-4.9.1 21.9 21.9 0 0 1-11.1-3.8 21.4 21.4 0 0 1-6.5-7.1 23 23 0 0 1-2.4-6 20.4 20.4 0 0 1-.7-4.2c0-1.2-.1-2.3-.1-3.5A22.4 22.4 0 0 1 .5 52a23.1 23.1 0 0 1 2.1-6 21.9 21.9 0 0 1 10.3-9.9 22.3 22.3 0 0 1 5.6-1.8l2.8-.3h1.8a30.3 30.3 0 0 1 4.1.4v7.5h-.8a19.8 19.8 0 0 0-4.3-.2 13.3 13.3 0 0 0-4.5 1.1 13.8 13.8 0 0 0-6.9 6.7 15.7 15.7 0 0 0-1.5 4.9 19.4 19.4 0 0 0-.2 3.7 17.1 17.1 0 0 0 2.7 8.7 13.1 13.1 0 0 0 7.1 5.4 12.1 12.1 0 0 0 3 .6H24a14.2 14.2 0 0 0 3.2-.4zm40.5-30.3a8.7 8.7 0 0 0-2.6 0H65a7.2 7.2 0 0 0-2.4.3 9 9 0 0 0-2.2 1 9.3 9.3 0 0 0-2.9 2.7 11.3 11.3 0 0 0-1.3 2.7 17.9 17.9 0 0 0-.9 3.6l-.2 1.6a18.6 18.6 0 0 0-.2 2v15.6a1.9 1.9 0 0 0 .1.3v7.5h-9V34.9h9v6.4l.2-.3a12.2 12.2 0 0 1 5.5-5.8 11.9 11.9 0 0 1 4.4-1.2h2.7v8.3zm112.3 30.2a10.7 10.7 0 0 0 3.2.2c.1.4.1 6.3 0 7.4l-2 .3h-2.6a11.1 11.1 0 0 1-6.1-1.8 10.2 10.2 0 0 1-3.8-4.8 14.5 14.5 0 0 1-.8-3.4 32.5 32.5 0 0 1-.3-4c0-1.3-.1-2.6-.1-4V42h-2.5c-.1-.4-.1-6.1-.1-7.3h18.3V42h-6.8v22.6a10.2 10.2 0 0 0 .1 1.6 18.1 18.1 0 0 0 .2 1.9 6.8 6.8 0 0 0 1.2 3 3.8 3.8 0 0 0 2.1 1.4zm-33.4-17.7v3.6h-2.2l-4.7.3a13.1 13.1 0 0 0-4.8 1.4 6.4 6.4 0 0 0-3.6 5.1 7.2 7.2 0 0 0 4 7.7 10.2 10.2 0 0 0 3.5 1 12.3 12.3 0 0 0 7.7-1.6h.1a56.1 56.1 0 0 1 0 5.8l-2.1 1a17.2 17.2 0 0 1-4.5 1.2 18.3 18.3 0 0 1-3.8.1 16.3 16.3 0 0 1-8.3-2.9 12.7 12.7 0 0 1-5.1-7.6 15.4 15.4 0 0 1-.3-2.4 13.1 13.1 0 0 1 .7-5.3 11.4 11.4 0 0 1 4.2-5.6 16.7 16.7 0 0 1 5.4-2.6l3.8-.8 2.5-.2 5.3-.2h2.4q-.2 1-.2 2zm52.8-19.9h6.5v44.6h-6.6v-7.7s.1-.4.1-.5V34.9zm-52.8-.4V42a9 9 0 0 0-3.5-1.1 18.9 18.9 0 0 0-3.1-.2 25.3 25.3 0 0 0-4.3.5 28.4 28.4 0 0 0-7.1 2.6l-1.4.8-2.7-6 1.2-.7a34.3 34.3 0 0 1 8.2-3l4.1-.7 3.6-.2a29.8 29.8 0 0 1 4.9.5zm52.7-15.6V15a2.3 2.3 0 0 1 1-.3 5.9 5.9 0 0 1 5.7 1.9 5 5 0 0 1 1.2 3 5.7 5.7 0 0 1-.5 3.1 5.3 5.3 0 0 1-3.4 2.8h-1.2a7.1 7.1 0 0 1-2.2-.2h-.4c-.1-.7-.1-1.2-.1-1.8s-.1-3.1-.1-4.6zM307.9 35H326a20.2 20.2 0 0 1 5.8 1.2 10.2 10.2 0 0 1 5.9 5.4 8.6 8.6 0 0 1 .7 2.8 15.7 15.7 0 0 1 .1 2.2 10.6 10.6 0 0 1-3.1 7.2 6.7 6.7 0 0 1-3.1 1.8l-1.5.5.8.2a16.1 16.1 0 0 1 4.6 1.5 10.3 10.3 0 0 1 4.4 4.2 9.7 9.7 0 0 1 1.1 3.2 13.1 13.1 0 0 1 .1 3.1 10.9 10.9 0 0 1-3.9 7.7 14 14 0 0 1-6.1 2.9 19.6 19.6 0 0 1-3.9.5H308zm9.5 24.9c-.1.7-.1 12.2 0 12.6h8.3a6.7 6.7 0 0 0 3.4-1 5.8 5.8 0 0 0 2.2-2.2 6.5 6.5 0 0 0 .5-4.9 5.7 5.7 0 0 0-3.7-3.9 10.2 10.2 0 0 0-3.8-.6h-6.9zm0-6.4h1.3c2 0 3.9.1 5.9-.1a5.5 5.5 0 0 0 3.9-2.2 5.9 5.9 0 0 0 .8-5.2 5.1 5.1 0 0 0-3.8-3.6 7.7 7.7 0 0 0-2.2-.3h-6zm65.5-14.4l-2.9 7.8-1.2-.9a18.7 18.7 0 0 0-7.4-3.2 15.4 15.4 0 0 0-4.2-.2 13.6 13.6 0 0 0-7.1 2.5 12.7 12.7 0 0 0-4.5 5.9 15.2 15.2 0 0 0-1 4.8c0 .7-.1 1.4-.1 2.1A14.8 14.8 0 0 0 358 67a12.7 12.7 0 0 0 6 3.9 14.5 14.5 0 0 0 3.2.6 18.1 18.1 0 0 0 9.7-1.8 14.8 14.8 0 0 0 3.4-2.3l.2-.2 3.1 7.4-1.3 1.2a19.7 19.7 0 0 1-8.7 4.1 22.7 22.7 0 0 1-4 .5h-2.5a25.8 25.8 0 0 1-8.7-1.7 21.5 21.5 0 0 1-4.9-2.7 20.6 20.6 0 0 1-5.5-6.1 22.7 22.7 0 0 1-2.6-7.1 21.3 21.3 0 0 1-.3-2.5 32.2 32.2 0 0 1-.2-3.3 24.9 24.9 0 0 1 2.3-10.2 21 21 0 0 1 12-10.9 23.8 23.8 0 0 1 4.8-1.2l2.5-.2h1.9a26.4 26.4 0 0 1 9.7 1.9 16.8 16.8 0 0 1 4.3 2.5zm-112.3-4.7l1.4-.3 3.5-.2a21.1 21.1 0 0 1 11.8 3.7 19.2 19.2 0 0 1 5.9 6.5 21.9 21.9 0 0 1 2.4 6.9 26.1 26.1 0 0 1 .3 5.9c0 .8-.1 1.5-.2 2.3s-23.5.2-25 .1v-6h16.8c-.1-.7-.1-1.3-.2-1.9a14.7 14.7 0 0 0-1.9-4.9 12 12 0 0 0-10.5-5.9 9.4 9.4 0 0 0-2.7.4l-1.5.4v-.7q-.1-3.2-.1-6.3zM233.8 65l1.4-3.6 3.8-10 3.1-8.2 3.2-8.4h9.2l-18.3 44.8h-2.6V65.9a7.6 7.6 0 0 1 .2-.9zm36.8 7.7h.1l2.1.4a16.5 16.5 0 0 0 4.5.2l2.7-.3a21.2 21.2 0 0 0 4.7-1.4 25.8 25.8 0 0 0 5.3-3l.3-.2h.1l3.7 5.1-.8.8a22.7 22.7 0 0 1-7 4.3 29.4 29.4 0 0 1-6.5 1.7 35.7 35.7 0 0 1-6.7.3l-2.5-.3z"/><path class="cls-3" d="M317.5 59.8h6.9a10.2 10.2 0 0 1 3.8.6 5.7 5.7 0 0 1 3.7 3.9 6.5 6.5 0 0 1-.5 4.9 5.8 5.8 0 0 1-2.2 2.2 6.7 6.7 0 0 1-3.4 1h-8.3c-.1-.3-.1-11.9 0-12.6zm0-6.4V41.9h6a7.7 7.7 0 0 1 2.2.3 5.1 5.1 0 0 1 3.8 3.6 5.9 5.9 0 0 1-.8 5.2 5.5 5.5 0 0 1-3.9 2.2c-2 .2-3.9.1-5.9.1zm-46.9-.1v-3.9h-6.3c.1-.4.1-.8.2-1.2a10.6 10.6 0 0 1 2.8-4.8 8.3 8.3 0 0 1 2.6-1.8l.6-.3 1.5-.4a9.4 9.4 0 0 1 2.7-.4 12 12 0 0 1 10.5 5.9 14.7 14.7 0 0 1 1.9 4.9c.1.6.2 1.3.2 1.9h-16.7z"/><path class="cls-6" d="M555.3 60.4h102.6v1.24H555.3zM558 16c0-2.1-.1-2.6-1.6-2.7h-1c-.2-.1-.1-.7 0-.7l6.7-.2a13.1 13.1 0 0 1 5.2.8 3.7 3.7 0 0 1 2.4 3.5c0 2-1.3 3.1-3.2 3.9 0 .3.3.4.6.4a4.8 4.8 0 0 1 4.2 4.7c0 3.3-2.7 5.5-8.3 5.5h-7.3a.5.5 0 0 1-.1-.7h.6c1.7-.3 1.7-.6 1.7-3.5zm2.6 3.7c0 .8 0 .8 1.6.8 3.2-.1 4.9-1 4.9-3.6s-2.3-3.8-4.7-3.8l-1.4.2c-.3.1-.4.2-.4.7zm0 6.5c0 1 .1 2.4.7 3.1a3.2 3.2 0 0 0 2.5.8c2.8 0 4.9-1.1 4.9-3.9s-1.2-4.8-6.2-4.8c-1.7 0-1.8.2-1.8.7zm32.5-7.4c0-2.5-.1-3-1.6-3.1h-.7c-.2-.1-.1-.5.1-.6h6.7c.2.1.2.5.1.6h-.7c-1.6.1-1.6.5-1.6 3.1v8.6c0 2.5.1 2.9 1.6 3.1h.7c.2.1.1.5-.1.6h-6.7a.4.4 0 0 1-.1-.6h.7c1.6-.2 1.6-.5 1.6-3.1zm14.8 8.6c0 2.5 0 2.9 1.5 3h.8c.1.1.1.5 0 .6h-6.8a.4.4 0 0 1 0-.6h.9c1.4-.1 1.5-.5 1.5-3V16.6c0-.7 0-.8-.7-.8h-1.4c-1.1 0-2.4 0-3.1.6a4.4 4.4 0 0 0-1.1 1.7.5.5 0 0 1-.7-.2 24.5 24.5 0 0 0 .9-3.6h.5c.2.8 1 .7 2.1.7h10.1c1.4 0 1.6 0 2-.7h.5a14 14 0 0 0-.4 3.7c-.1.2-.5.2-.6 0s-.3-1.5-.6-1.8a5.1 5.1 0 0 0-2.9-.6h-1.8c-.8 0-.7 0-.7.8zm10.7-8.6c0-2.5-.1-3-1.6-3.1h-.7c-.2-.1-.1-.5.1-.6h6.7c.2.1.2.5.1.6h-.7c-1.6.1-1.6.5-1.6 3.1v8.6c0 2.5.1 2.9 1.6 3.1h.7c.2.1.1.5-.1.6h-6.7a.4.4 0 0 1-.1-.6h.7c1.6-.2 1.6-.5 1.6-3.1zm12 12.5a10.1 10.1 0 0 1-4.4-.9 9.6 9.6 0 0 1-.8-3.4c.1-.2.6-.2.7-.1a4.9 4.9 0 0 0 4.9 3.6c2.4 0 3.5-1.3 3.5-2.8s-.3-2.2-2.3-3.4l-2.7-1.5c-1.4-.8-3.1-2.2-3.1-4.1s2.1-4.1 5.8-4.1a12.8 12.8 0 0 1 2.6.3h1a9.1 9.1 0 0 1 .5 2.9.6.6 0 0 1-.7.1 3.6 3.6 0 0 0-3.9-2.7c-2.8 0-3.4 1.6-3.4 2.7s1.4 2.4 2.4 3l2.3 1.2c1.8.9 3.5 2.3 3.5 4.6s-2.2 4.6-5.9 4.6zm14.3-8.1c-1.2 0-1.3 0-1.3.8v3.4c0 2.5.1 2.9 1.6 3h.7c.2.1.1.5-.1.6h-6.3a.4.4 0 0 1-.1-.6h.4c1.4-.2 1.5-.5 1.5-3v-8.7c0-2.5-.2-2.9-1.5-3h-.7c-.2-.1-.1-.5.1-.6h6.3c.2.1.2.5.1.6h-.5c-1.5.1-1.6.5-1.6 3v2.8c0 .7.1.8 1.3.8h7.4c1.2 0 1.3 0 1.3-.8v-2.8c0-2.5-.1-2.9-1.6-3h-.5c-.2-.1-.1-.5.1-.6h6.2c.2.1.2.5.1.6h-.5c-1.5.1-1.6.5-1.6 3v8.7c0 2.5.1 2.8 1.6 3h.6c.2.1.1.5-.1.6h-6.3a.4.4 0 0 1-.1-.6h.5c1.6-.2 1.6-.5 1.6-3V24c0-.7-.1-.8-1.3-.8zM543.2 36.3a12.6 12.6 0 0 1 7.9-2.5 22.5 22.5 0 0 1 5.2.7h.8c0 .7.2 2.5.4 4.3a.6.6 0 0 1-.8.1c-.4-2-1.7-4.2-6-4.2s-8.2 2.8-8.2 8.8 3.8 9.5 8.5 9.5a6.2 6.2 0 0 0 6.1-4.2.6.6 0 0 1 .8.1 10.9 10.9 0 0 1-1.4 4l-1 .3a17.2 17.2 0 0 1-4.6.7 12.8 12.8 0 0 1-7.3-1.9 9.3 9.3 0 0 1-4.1-8 9.6 9.6 0 0 1 3.7-7.7zm15.9 9.4c0-4.8 3.8-8.5 9-8.5s8.8 4 8.8 8.2a8.4 8.4 0 0 1-8.8 8.4c-5.6.1-9-3.8-9-8.1zm15.2.5c0-4-1.8-8.2-6.7-8.2-2.6 0-6 1.7-6 7 0 3.6 1.8 8.2 6.8 8.2 3-.1 5.9-2.2 5.9-7zm31-2.6c0-1.5-.1-4.3-.5-5a1.6 1.6 0 0 0-1.3-.5h-.6a.4.4 0 0 1 .1-.6h5.6a.4.4 0 0 1 .1.6h-.7a1.5 1.5 0 0 0-1.3.6c-.4.8-.4 3.6-.4 4.9v2.7c0 2.1-.4 4.3-1.8 5.7a6.9 6.9 0 0 1-4.9 1.8 7.6 7.6 0 0 1-4.8-1.3c-1.4-1.1-2-2.8-2-5.7v-5.6c0-2.5-.1-2.9-1.5-3h-.6c-.2-.1-.1-.5.1-.6h6.3c.2.1.2.5.1.6h-.6c-1.5.1-1.5.5-1.5 3v5.2c0 3.9 1.3 6.4 5.2 6.4s5.1-2.7 5.1-6.4zm29.6-3c0-1.8-.1-2.3-1.4-2.4h-.9c-.1-.1-.2-.6 0-.6l6.1-.2a12.3 12.3 0 0 1 4.7.7 3.2 3.2 0 0 1 2.1 3c0 1.7-1.2 2.6-2.9 3.3 0 .2.2.3.5.4a4.2 4.2 0 0 1 3.8 4.1c0 2.8-2.4 4.7-7.5 4.7h-6.6a.4.4 0 0 1-.1-.6h.5c1.5-.2 1.5-.5 1.5-3zm2.3 3.2c0 .7 0 .7 1.5.7s4.4-.8 4.4-3.1-2.1-3.3-4.2-3.3h-1.3c-.3.1-.4.2-.4.6zm0 5.6a4.2 4.2 0 0 0 .6 2.6 3 3 0 0 0 2.2.7c2.5 0 4.4-1 4.4-3.4s-1.1-4.2-5.6-4.2c-1.5 0-1.6.1-1.6.6zm-48.2-19h-1c-1-.2-1.4-1-1.8-1.8l-2.3-4c-.4-.7-.8-1.6-1.7-1.7 2.4-.3 4.5-1.6 4.5-4S584 15 581.3 15h-7.7c-.5 0-.5.1-.5.4s.2.3.7.3 1.9.5 1.9 2.1v10.4c0 1.5.1 2-1.5 2.1h-1.1a.4.4 0 0 0 .1.6h7.2a.4.4 0 0 0 .1-.6h-1c-1.6-.1-1.5-.6-1.5-2.1v-4c0-.2 0-.8.1-1s.4-.1.6-.1c2.2 0 2.1.2 3.2 2l2.8 5c.2.4.4.9 1 .9h3.3a.4.4 0 0 0 0-.6zm-9.7-7.9c-.5 0-1.5.2-1.5-.5v-4.5c0-1.8.1-2.1 2.2-2.1s4.1 1.3 4.1 3.7a3 3 0 0 1-1.3 2.6 5.9 5.9 0 0 1-3.5.8zm.5 18.8c0-2.5-.1-2.9-1.7-3h-.7c-.2-.1-.1-.5.1-.6h6.7c.2.1.2.5.1.6h-.6c-1.6.1-1.6.5-1.6 3v8.4c0 1.5.1 2.1.6 2.6s.8.6 2.9.6 2.8-.1 3.2-.3a5.2 5.2 0 0 0 1.7-2.4c.2-.1.7 0 .7.1a18 18 0 0 1-1.1 3.4h-12.6a.4.4 0 0 1-.1-.6h.8c1.5-.1 1.6-.5 1.6-3zm70.9 0c0-2.5-.1-3-1.6-3.1h-.6c-.2-.1-.1-.5.1-.6h6.4c.2.1.2.5.1.6h-.6c-1.5.1-1.6.5-1.6 3.1v8.6c0 2.5.1 2.9 1.6 3.1h.6c.2.1.1.5-.1.6h-6.5a.4.4 0 0 1-.1-.6h.6c1.5-.2 1.6-.5 1.6-3.1zm-20.8 11.6h-.4a1 1 0 0 1-.7-.3c-.3-.4-.3-1.4-.3-1.8V40.3c0-.5-.1-1.5.2-1.8a1.3 1.3 0 0 1 .8-.2h1c.2-.1.1-.5-.1-.6h-3.8c-.3 0-.6 0-.8.3L620 50l-5.1-11.6c-.2-.4-.2-.7-.7-.7h-4c-.2.1-.2.5-.1.6h1.1c1.1.1 1.2.3 1.1 1.5l-.7 11.2c-.1 1.1-.1 1.7-1.3 1.8h-1.1a.4.4 0 0 0 .1.6h5.8a.4.4 0 0 0 .1-.6h-1c-1.7-.1-1.7-1.3-1.6-2.8l.8-10.5h.2l5.4 13c.1.2.1.5.4.5s.3-.3.4-.5l6.2-13.3h.2v11.6c0 .5.1 1.4-.4 1.8a3.5 3.5 0 0 1-1.1.3h-1a.4.4 0 0 0 .1.6h6.7a.4.4 0 0 0 .1-.6zm43.4.1h-.5c-1-.2-1.4-1.5-1.8-2.4l-5.4-12.7c-.1-.2-.2-.5-.4-.5s-.4.4-.5.6l-5.1 12.6a8.4 8.4 0 0 1-1 2 1.5 1.5 0 0 1-1 .4h-1.1a.4.4 0 0 0 .1.6h5.8a.4.4 0 0 0 .1-.6h-1c-.6-.1-1.4-.2-1.4-.9a4.2 4.2 0 0 1 .4-1.4l.8-1.9c.4-.9.2-1 1.3-1h3.6c1.3 0 1.1 0 1.6 1.3l.8 1.9a4.2 4.2 0 0 1 .4 1.2c0 .6-.7.7-1.3.7h-1a.4.4 0 0 0 .1.6h6.4a.4.4 0 0 0 .1-.5zm-7-6h-3.1c-.1 0-1 .1-1-.2v-.3l1.9-4.6c.1-.1.2-.8.5-.8s.4.7.4.8l1.8 4.3c0 .1.2.5.2.6s-.6.2-.7.2z"/><path class="cls-5" d="M477.8 25l-9.4-18.8.6-.2 7.8 14.9-6.6-15.4.6-.3 7.5 16.9-6.4-17.4.6-.2 6 15.7L473.8 4l.6-.2 6.3 20 1.3-.4a165.6 165.6 0 0 0-2-17.7 165.6 165.6 0 0 0 4.9 17.2h1.3l-1.6-21.1h.6l1.6 16.7-.3-16.8h.6l.6 18.5.6-18.5h.6l-.3 16.8 1.6-16.7h.6l-1.7 20.9h1.3a165.6 165.6 0 0 0 4.9-17.2 165.7 165.7 0 0 0-1.9 17.8l1.3.4 6.2-19.9.6.2-4.5 16.2 6-15.7.6.2-6.3 17.4 7.5-16.9.6.3-6.5 15.5 7.8-14.9.6.2-9.5 18.7 1.1.6a165.6 165.6 0 0 0 11-14.1 165.6 165.6 0 0 0-8.4 15.8l1.1.8L515.9 12l.5.4-10.5 13.2 11.5-12.3.5.4-12.5 13.8 13.3-12.9.4.5L507.3 27l12.8-10.9.4.4-15.6 13.8.8.9a165.7 165.7 0 0 0 15.6-9 165.5 165.5 0 0 0-13.8 11.5l.7 1.2 18.3-10 .3.5-14.6 8.3 15.2-7.1.3.6-14.2 6.9h.3l14.4-5.8.2.6-13.4 5.7h.3l8.9-3 1.3-.9.4.3 2.9-1 .2.6-2.5.9 3.7 2.8-4.9-2.7-7.2 5-4.8-1.6c-1.6.8-11.7 7.5-11.7 7.5l-3.9-2.8-4.1-.8-5.5-4-6.3 4.3s-7.1 4.1-7.3 4.1-8.5-6.6-8.5-6.6l-3.8-4-3.2 1.6h-.1l-2.5-.8-3-1.6-8.4 3.8 6.2-3.5-4.6-1.6.2-.6 5.2 1.7.7-.4.3-.2-5.7-2.4.2-.6 12.5 5.3.4-.2-12.5-6.1.3-.6 13.3 6.2h.2l-12.9-7.3.3-.5L467.7 35l.6-1.1a165.6 165.6 0 0 0-13.9-11.6 165.6 165.6 0 0 0 15.6 9l.8-1L455 16.4l.4-.4 12.8 10.9L456.4 15l.4-.5 13.3 12.9-12.4-13.8.5-.4 11.5 12.3-10.5-13.2.5-.4 13.4 16.3 1-.8a165.5 165.5 0 0 0-8.5-15.9 165.5 165.5 0 0 0 11.1 14.2l1.1-.7zm38.6 10.4l1.8.7 3.9-2.7z"/><path class="cls-6" d="M442.4 42.7a42.2 42.2 0 0 1 1-7A45.6 45.6 0 0 1 488 0a46 46 0 0 1 44 34.5 49.3 49.3 0 0 1 1.4 11.2 45.9 45.9 0 0 1-.8 7.7v.4l-.6.4-.4.3-.5.4h.1c-6.1 4-12.2 5.3-20.8 6.3s-15.4-.5-23.4-2.3l-7.6-1.9a166.6 166.6 0 0 0-18.5-3.5 55.2 55.2 0 0 0-15.7.8h-1l-.9.2-.2-.9a42.1 42.1 0 0 1-.8-8.2c0-.9 0-1.9.1-2.8zm.9.5c0 .8-.1 1.6-.1 2.4a41.2 41.2 0 0 0 .8 8l1-.2c4.1-.7 10.5-1.5 16-.8 8.7 1.1 14.2 2.6 23.3 4.6s16 4 25.9 2.9 14.6-2.3 20.4-6.1l.5-.3.6-.5a44.4 44.4 0 0 0 .7-7.6 48.7 48.7 0 0 0-1.2-10.6 52 52 0 0 0-1.9-5.9A45.2 45.2 0 0 0 487.8.9a44.5 44.5 0 0 0-43.5 34.9v.2a45.9 45.9 0 0 0-.9 6.3zm1 36.4a4 4 0 0 1-2-.5 5.9 5.9 0 0 1-.3-1.8h.3a2.3 2.3 0 0 0 2.2 1.9 1.4 1.4 0 0 0 1.6-1.5 1.9 1.9 0 0 0-1-1.8l-1.2-.8a2.7 2.7 0 0 1-1.4-2.2c0-1.2.9-2.2 2.6-2.2l1.2.2h.4a5.5 5.5 0 0 1 .2 1.5h-.3a1.7 1.7 0 0 0-1.7-1.4 1.3 1.3 0 0 0-1.5 1.4 2 2 0 0 0 1.1 1.6l1 .6a2.9 2.9 0 0 1 1.6 2.4c-.1 1.7-1.2 2.6-2.8 2.6zm5.1-2c0 .9.2 1.5 1.2 1.5a1.7 1.7 0 0 0 1-.4.9.9 0 0 0 .3-.7v-2.2c0-.8-.1-.8-.5-1h-.2a.2.2 0 0 1 0-.3l1.5-.2h.1v3.2c0 1 0 1.4.4 1.4h.5c.1.1.1.3 0 .4a6.6 6.6 0 0 0-1.7.5h-.2v-.5c0-.1 0-.2-.1-.2a3.3 3.3 0 0 1-1.7.7c-1.1 0-1.5-.6-1.5-1.6v-2.3c0-.8 0-.9-.4-1.1h-.2a.2.2 0 0 1 0-.3l1.4-.2h.1a9.5 9.5 0 0 0 0 1.1zm5.5-1.8c0-.5 0-.6-.3-.8h-.1a.2.2 0 0 1 0-.2l1.3-.7h.2a5.8 5.8 0 0 0-.1.6c0 .1 0 .2.1.2a4 4 0 0 1 1.8-.6 2.1 2.1 0 0 1 2.1 2.3 3 3 0 0 1-3.1 3h-.7c-.1 0-.2.1-.2.4v1.3c0 .9 0 1 .5 1.1h.5a.2.2 0 0 1 0 .3h-2.6a.2.2 0 0 1 0-.3h.3c.5-.1.5-.2.5-1.1zm.9 2.4a.8.8 0 0 0 .4.8 1.7 1.7 0 0 0 .9.3c1 0 1.6-1 1.6-2.3a1.8 1.8 0 0 0-1.7-2 1.6 1.6 0 0 0-1.1.4c-.1.1-.2.3-.2.7zm5.6-2.4c0-.5 0-.6-.3-.8h-.1a.2.2 0 0 1 0-.2l1.3-.7h.2a5.8 5.8 0 0 0-.1.6c0 .1 0 .2.1.2a4 4 0 0 1 1.8-.6 2.1 2.1 0 0 1 2.1 2.3 3 3 0 0 1-3.1 3h-.7c-.1 0-.2.1-.2.4v1.3c0 .9 0 1 .5 1.1h.5a.2.2 0 0 1 0 .3h-2.6a.2.2 0 0 1 0-.3h.3c.5-.1.5-.2.5-1.1zm.9 2.4a.8.8 0 0 0 .4.8 1.7 1.7 0 0 0 .9.3c1 0 1.6-1 1.6-2.3a1.8 1.8 0 0 0-1.7-2 1.6 1.6 0 0 0-1.1.4c-.1.1-.2.3-.2.7zm10.2-1.3a2.6 2.6 0 0 1-2.7 2.7 2.5 2.5 0 0 1-2.6-2.6 2.7 2.7 0 0 1 2.7-2.7 2.5 2.5 0 0 1 2.6 2.6zm-2.7-2.2c-.8 0-1.5.8-1.5 2.2s.5 2.4 1.6 2.4 1.5-1.2 1.5-2.1-.5-2.5-1.7-2.5zm4.4 1.1c0-.5 0-.6-.3-.8h-.1a.2.2 0 0 1 0-.2l1.3-.6h.1v.7a2.6 2.6 0 0 1 1.4-.8.5.5 0 0 1 .6.5.6.6 0 0 1-.5.6h-.3l-.6-.2a.6.6 0 0 0-.5.3 1.9 1.9 0 0 0-.2 1V78c0 .9 0 1.1.5 1.1h.5a.2.2 0 0 1 0 .3h-2.6a.2.2 0 0 1 0-.3h.2c.5-.1.5-.2.5-1.1zm5.3-.8c-.2 0-.2 0-.2.3v2.4c0 .7.1 1.4.9 1.4h.3l.3-.2c.1 0 .2.1.1.2a1.8 1.8 0 0 1-1.3.6c-1.1 0-1.3-.6-1.3-1.4v-3c0-.3 0-.4-.3-.4h-.4a.2.2 0 0 1 0-.3l.8-.4.5-.7h.3v.6c0 .2 0 .2.2.2h1.4a.4.4 0 0 1 0 .5zm3.3 1.2c-.3 0-.3 0-.3.3a2.1 2.1 0 0 0 2.1 2.4 1.4 1.4 0 0 0 1.2-.6.2.2 0 0 1 .2.2 2.2 2.2 0 0 1-2 1.2 2.3 2.3 0 0 1-1.8-.8 2.7 2.7 0 0 1-.5-1.6 2.7 2.7 0 0 1 2.5-2.9 1.7 1.7 0 0 1 1.8 1.5.8.8 0 0 1-.1.3h-3.1zm.8-.4h1.3s.1-.1.1-.2-.2-.8-1-.8a1.5 1.5 0 0 0-1.4 1.1h1zm7.9 1.8c0 1 0 1.5.4 1.5h.5c.1 0 .1.3 0 .4l-1.7.4h-.1v-.2a1.4 1.4 0 0 0 0-.4h-.1a2.6 2.6 0 0 1-1.6.6 2.3 2.3 0 0 1-2.3-2.4 2.9 2.9 0 0 1 3.1-2.9h.8c.1 0 .1-.1.1-.2v-2.1c0-.7 0-.8-.4-1.1h-.1a.2.2 0 0 1 0-.3l1.4-.5h.1V72zm-.9-1.9a.7.7 0 0 0-.1-.5 1.3 1.3 0 0 0-1.1-.5c-1.2 0-1.7 1-1.7 2.1a2 2 0 0 0 1.9 2.2 1.6 1.6 0 0 0 1-.4.8.8 0 0 0 .1-.5zm6.2-3.4c0-.7 0-.8-.4-1.1h-.1a.2.2 0 0 1 0-.3l1.4-.5h.1c0 .4-.1 1-.1 1.6v2.4c0 .2.1.3.1.3a2.9 2.9 0 0 1 1.5-.4 2.4 2.4 0 0 1 2.4 2.5 2.8 2.8 0 0 1-2.9 2.9l-1.1-.2-.5-.2-.3.2h-.2v-1.1zm.9 5.4a1.8 1.8 0 0 0 .3 1.1 1.2 1.2 0 0 0 1 .4c1.2 0 1.7-1 1.7-2.1s-.7-2.3-1.9-2.3l-.9.2c-.1.1-.2.2-.2.7zm4.7 4.4a.5.5 0 0 1 .5-.5h.2a.5.5 0 0 0 .4-.2 8.1 8.1 0 0 0 .7-1.4 1.9 1.9 0 0 0 .1-.5 2.4 2.4 0 0 0-.2-.9l-1-2.7c-.2-.6-.3-.9-.7-1h-.3c-.1-.1-.1-.3 0-.3h2.3c.1 0 .1.3 0 .3h-.3l-.3.2a9.6 9.6 0 0 0 .4 1.2l.4 1.2.4.9.5-.9.4-1a5.9 5.9 0 0 0 .4-1.3c0-.1-.1-.2-.3-.2h-.4c-.1-.1-.1-.3 0-.3h2.1a.2.2 0 0 1 0 .3h-.2c-.4.1-.6.4-1.1 1.3l-.7 1.5-1.9 4.2a.8.8 0 0 1-.8.6.5.5 0 0 1-.6-.5zm10.7-7.1c-.2 0-.2 0-.2.3v2.4c0 .7.1 1.4.9 1.4h.3l.3-.2c.1 0 .2.1.1.2a1.8 1.8 0 0 1-1.3.6c-1.1 0-1.3-.6-1.3-1.4v-3c0-.3 0-.4-.3-.4h-.4a.2.2 0 0 1 0-.3l.8-.4.5-.7h.3v.6c0 .2 0 .2.2.2h1.4a.4.4 0 0 1 0 .5zm2.8-2.7c0-.7 0-.8-.4-1.1h-.1a.2.2 0 0 1 0-.3l1.4-.5h.1v4.3c0 .1 0 .2.1.2a2.9 2.9 0 0 1 1.7-.7 1.5 1.5 0 0 1 1.6 1.6V78c0 .9 0 1.1.5 1.1h.3a.2.2 0 0 1 0 .3h-2.4a.2.2 0 0 1 0-.3h.3c.5-.1.5-.2.5-1.1v-1.8c0-.8-.4-1.4-1.2-1.4a1.5 1.5 0 0 0-1 .3c-.2.2-.3.3-.3.7V78c0 .9 0 1 .5 1.1h.3c.1.1.1.3 0 .3h-2.4a.2.2 0 0 1 0-.3h.3c.5-.1.5-.2.5-1.1zm7 3.9c-.3 0-.3 0-.3.3a2.1 2.1 0 0 0 2.1 2.4 1.4 1.4 0 0 0 1.2-.6.2.2 0 0 1 .2.2 2.2 2.2 0 0 1-2 1.2 2.3 2.3 0 0 1-1.8-.8 2.7 2.7 0 0 1-.5-1.6 2.7 2.7 0 0 1 2.5-2.9 1.7 1.7 0 0 1 1.8 1.5.8.8 0 0 1-.1.3h-3.1zm.8-.4h1.3s.1-.1.1-.2-.2-.8-1-.8a1.5 1.5 0 0 0-1.4 1.1h1zm8.5 1.7c0 1.3 0 1.5.8 1.6h.3a.2.2 0 0 1 0 .3h-3.2a.2.2 0 0 1 0-.3h.3c.7-.1.8-.3.8-1.6v-4.6c0-1.1 0-1.3-.6-1.4h-.5a.2.2 0 0 1 0-.3h2.5a4.6 4.6 0 0 1 2.4.5 2.2 2.2 0 0 1 1 1.9 2.1 2.1 0 0 1-1.3 2 4.3 4.3 0 0 1-1.7.4c-.1 0-.1-.2 0-.3a2 2 0 0 0 1.9-2.1 1.9 1.9 0 0 0-2-2c-.7 0-.7.1-.7.5zm5.1-1.7c0-.5 0-.6-.3-.8h-.1a.2.2 0 0 1 0-.2l1.3-.6h.1v.7a2.6 2.6 0 0 1 1.4-.8.5.5 0 0 1 .6.5.6.6 0 0 1-.5.6h-.3l-.6-.2a.6.6 0 0 0-.5.3 1.9 1.9 0 0 0-.2 1V78c0 .9 0 1.1.5 1.1h.5a.2.2 0 0 1 0 .3h-2.6a.2.2 0 0 1 0-.3h.2c.5-.1.5-.2.5-1.1zm8.7 1.1a2.6 2.6 0 0 1-2.7 2.7 2.5 2.5 0 0 1-2.6-2.6 2.7 2.7 0 0 1 2.7-2.7 2.5 2.5 0 0 1 2.6 2.6zm-2.7-2.2c-.8 0-1.5.8-1.5 2.2s.5 2.4 1.6 2.4 1.5-1.2 1.5-2.1-.5-2.5-1.7-2.5zm3.9 1c-.2-.5-.3-.9-.8-.9h-.3c-.1-.1-.1-.3 0-.3h2.2a.2.2 0 0 1 0 .3h-.2c-.4.1-.4.1-.3.5s.7 1.8 1 2.4l.2.4.2-.5.7-1.9a2.9 2.9 0 0 0 .2-.8c0-.1-.1-.2-.2-.2h-.3a.2.2 0 0 1 0-.3h1.8a.2.2 0 0 1 0 .3h-.2c-.4.1-.6.4-.9 1.1l-1.2 2.7-.4 1h-.3l-.5-1.3zm5.7.1c0-.5 0-.6-.3-.8h-.1a.2.2 0 0 1 0-.2l1.3-.6h.1c0 .4-.1 1.1-.1 1.6V78c0 .9 0 1 .5 1.1h.3a.2.2 0 0 1 0 .3h-2.4a.2.2 0 0 1 0-.3h.3c.5-.1.5-.2.5-1.1zm1.1-3.6a.7.7 0 0 1-1.3 0 .7.7 0 0 1 .7-.7.6.6 0 0 1 .6.7zm2.2 3.6c0-.5 0-.6-.3-.8h-.1a.2.2 0 0 1 0-.2l1.3-.6h.1v.6h.1a3.5 3.5 0 0 1 1.8-.6 1.4 1.4 0 0 1 1.5 1.6V78c0 .9 0 1 .5 1.1h.3a.2.2 0 0 1 0 .3H559a.2.2 0 0 1 0-.3h.2c.5-.1.5-.2.5-1.1v-1.9a1.1 1.1 0 0 0-1.2-1.3 1.4 1.4 0 0 0-1.1.4 1.1 1.1 0 0 0-.2.8v2c0 .9 0 1 .5 1.1h.2a.2.2 0 0 1 0 .3h-2.3a.2.2 0 0 1 0-.3h.3c.5-.1.5-.2.5-1.1zm10.1-1.3a.7.7 0 0 1 .2.5c0 .2-.1.5-.3.5h-.2a1.7 1.7 0 0 0-1.3-.7 1.8 1.8 0 0 0-1.7 2 2.1 2.1 0 0 0 2 2.2 1.5 1.5 0 0 0 1.4-.8.2.2 0 0 1 .2.2 2.3 2.3 0 0 1-2.1 1.3 2.5 2.5 0 0 1-1.7-.6 2.5 2.5 0 0 1-.7-1.9 2.8 2.8 0 0 1 3.1-2.8zm2.1 1.7c-.3 0-.3 0-.3.3a2.1 2.1 0 0 0 2.1 2.4 1.4 1.4 0 0 0 1.2-.6.2.2 0 0 1 .2.2 2.2 2.2 0 0 1-2 1.2 2.3 2.3 0 0 1-1.8-.8 2.7 2.7 0 0 1-.5-1.6 2.7 2.7 0 0 1 2.5-2.9 1.7 1.7 0 0 1 1.8 1.5.8.8 0 0 1-.1.3h-3.1zm.8-.4h1.3s.1-.1.1-.2-.2-.8-1-.8a1.5 1.5 0 0 0-1.4 1.1h1zm11.5 1.1a2.6 2.6 0 0 1-2.7 2.7 2.5 2.5 0 0 1-2.6-2.6 2.7 2.7 0 0 1 2.7-2.7 2.5 2.5 0 0 1 2.6 2.6zm-2.7-2.2c-.8 0-1.5.8-1.5 2.2s.5 2.4 1.6 2.4 1.5-1.2 1.5-2.1-.5-2.5-1.7-2.5zm5.5.3c-.2 0-.2 0-.2.4V78c0 .9 0 1.1.5 1.1h.5a.2.2 0 0 1 0 .3h-2.6a.2.2 0 0 1 0-.3h.3c.5-.1.5-.2.5-1.1v-2.7c0-.3 0-.4-.3-.4h-.4a.2.2 0 0 1 0-.2l.5-.3a.3.3 0 0 0 .2-.3 5.7 5.7 0 0 1 .4-2.2 2.5 2.5 0 0 1 2.3-1.6c.7 0 1.2.3 1.2.8a.5.5 0 0 1-.5.5l-.3-.2a1.4 1.4 0 0 0-1-.6 1 1 0 0 0-.9.7 6.7 6.7 0 0 0-.3 2.1v.4c0 .3 0 .4.2.4h1.4a.4.4 0 0 1-.1.5zm6.1-2.3c0-.9-.1-1.2-.6-1.2h-.4a.2.2 0 0 1 0-.3h2.7a4.8 4.8 0 0 1 2.1.4 1.7 1.7 0 0 1 1 1.6 1.8 1.8 0 0 1-1.3 1.7c0 .1.1.2.2.2a2.1 2.1 0 0 1 1.7 2.1c0 1.5-1.1 2.5-3.4 2.5h-3a.2.2 0 0 1 0-.3h.2c.7-.1.7-.3.7-1.6zm1 1.7c0 .4 0 .4.7.4s2-.4 2-1.6a1.7 1.7 0 0 0-1.9-1.7h-.6c-.1 0-.2.1-.2.3zm0 2.9a2.5 2.5 0 0 0 .3 1.4 1.2 1.2 0 0 0 1 .4c1.1 0 2-.5 2-1.8s-.5-2.2-2.5-2.2-.7.1-.7.3zm6.2-1.5c0-.5 0-.6-.3-.8h-.1a.2.2 0 0 1 0-.2l1.3-.6h.1v.7a2.6 2.6 0 0 1 1.4-.8.5.5 0 0 1 .6.5.6.6 0 0 1-.5.6h-.3l-.6-.2a.6.6 0 0 0-.5.3 1.9 1.9 0 0 0-.2 1V78c0 .9 0 1.1.5 1.1h.5a.2.2 0 0 1 0 .3h-2.6a.2.2 0 0 1 0-.3h.2c.5-.1.5-.2.5-1.1zm4.2 0c0-.5 0-.6-.3-.8h-.1a.2.2 0 0 1 0-.2l1.3-.6h.1c0 .4-.1 1.1-.1 1.6V78c0 .9 0 1 .5 1.1h.3a.2.2 0 0 1 0 .3h-2.4a.2.2 0 0 1 0-.3h.3c.5-.1.5-.2.5-1.1zm1.1-3.6a.7.7 0 0 1-1.3 0 .7.7 0 0 1 .7-.7.6.6 0 0 1 .5.7zm3.2 2.8c-.2 0-.2 0-.2.3v2.4c0 .7.1 1.4.9 1.4h.3l.3-.2c.1 0 .2.1.1.2a1.8 1.8 0 0 1-1.3.6c-1.1 0-1.3-.6-1.3-1.4v-3c0-.3 0-.4-.3-.4h-.4a.2.2 0 0 1 0-.3l.8-.4.5-.7h.3v.6c0 .2 0 .2.2.2h1.4a.4.4 0 0 1 0 .5zm2.8.8c0-.5 0-.6-.3-.8h-.1a.2.2 0 0 1 0-.2l1.3-.6h.1c0 .4-.1 1.1-.1 1.6V78c0 .9 0 1 .5 1.1h.3a.2.2 0 0 1 0 .3h-2.4a.2.2 0 0 1 0-.3h.3c.5-.1.5-.2.5-1.1zm1.1-3.6a.7.7 0 0 1-1.3 0 .7.7 0 0 1 .7-.7.6.6 0 0 1 .6.7zm4.4 2.3a3 3 0 0 1 .2 1h-.3a1.2 1.2 0 0 0-1.1-.9.7.7 0 0 0-.8.8c0 .5.5.8 1 1.1s1.3.8 1.3 1.7-.9 1.4-1.8 1.4a2.1 2.1 0 0 1-1.4-.4 3.8 3.8 0 0 1-.2-1.3h.3c.2.7.6 1.3 1.3 1.3a.8.8 0 0 0 .8-.8c0-.6-.5-.9-1-1.2s-1.3-.9-1.3-1.6.8-1.4 1.7-1.4a2.2 2.2 0 0 1 1.3.3zm1.8-2.2c0-.7 0-.8-.4-1.1h-.1a.2.2 0 0 1 0-.3l1.4-.5h.1v4.3c0 .1 0 .2.1.2a2.9 2.9 0 0 1 1.7-.7 1.5 1.5 0 0 1 1.6 1.6V78c0 .9 0 1.1.5 1.1h.3a.2.2 0 0 1 0 .3h-2.4a.2.2 0 0 1 0-.3h.3c.5-.1.5-.2.5-1.1v-1.8c0-.8-.4-1.4-1.2-1.4a1.5 1.5 0 0 0-1 .3c-.2.2-.3.3-.3.7V78c0 .9 0 1 .5 1.1h.3c.1.1.1.3 0 .3h-2.4a.2.2 0 0 1 0-.3h.3c.5-.1.5-.2.5-1.1zm10.8-.3a5.5 5.5 0 0 1 3.4-1.1l2.2.3h.4c0 .3.1 1.1.2 1.9h-.4a2.3 2.3 0 0 0-2.6-1.9c-1.9 0-3.6 1.2-3.6 3.9s1.7 4.1 3.8 4.1a2.7 2.7 0 0 0 2.6-1.8h.3a4.8 4.8 0 0 1-.6 1.7h-.4a7.5 7.5 0 0 1-2 .3 5.5 5.5 0 0 1-3.2-.8 4.1 4.1 0 0 1-1.8-3.5 4.2 4.2 0 0 1 1.7-3.1zm12.4 4.9a2.6 2.6 0 0 1-2.7 2.7 2.5 2.5 0 0 1-2.6-2.6 2.7 2.7 0 0 1 2.7-2.7 2.5 2.5 0 0 1 2.6 2.6zm-2.7-2.2c-.8 0-1.5.8-1.5 2.2s.5 2.4 1.6 2.4 1.5-1.2 1.5-2.1-.5-2.5-1.7-2.5zm5.2 3.3c0 .9 0 1 .5 1.1h.3a.2.2 0 0 1 0 .3h-2.4a.2.2 0 0 1 0-.3h.3c.5-.1.5-.2.5-1.1v-5.7c0-.7 0-.8-.4-1.1h-.1a.2.2 0 0 1 0-.3l1.4-.5h.1V72zm3.1-.4c0 .9.2 1.5 1.2 1.5a1.7 1.7 0 0 0 1-.4.9.9 0 0 0 .3-.7v-2.2c0-.8-.1-.8-.5-1h-.2a.2.2 0 0 1 0-.3l1.5-.2h.1v3.2c0 1 0 1.4.4 1.4h.5c.1.1.1.3 0 .4a6.6 6.6 0 0 0-1.7.5h-.2v-.5c0-.1 0-.2-.1-.2a3.3 3.3 0 0 1-1.7.7c-1.1 0-1.5-.6-1.5-1.6v-2.3c0-.8 0-.9-.4-1.1h-.2a.2.2 0 0 1 0-.3l1.4-.2h.1a9.5 9.5 0 0 0 0 1.1zm12.4-1.4c0-.9-.4-1.3-1.2-1.3a1.4 1.4 0 0 0-1.1.4c-.2.2-.2.3-.2.8V78c0 .9 0 1 .5 1.1h.3a.2.2 0 0 1 0 .3h-2.3a.2.2 0 0 1 0-.3h.2c.5-.1.5-.2.5-1.1v-1.8c0-.8-.4-1.3-1.2-1.3a1.4 1.4 0 0 0-1.1.5 1 1 0 0 0-.2.7v2c0 .9 0 1 .5 1.1h.2a.2.2 0 0 1 0 .3h-2.4a.2.2 0 0 1 0-.3h.3c.5-.1.5-.2.5-1.1v-2.3c0-.5 0-.6-.3-.8h-.1a.2.2 0 0 1 0-.2l1.3-.6h.1v.6h.1a3 3 0 0 1 1.7-.6 1.4 1.4 0 0 1 1.3.7h.3a3.2 3.2 0 0 1 1.7-.6 1.4 1.4 0 0 1 1.5 1.6V78c0 .9 0 1 .5 1.1h.3a.2.2 0 0 1 0 .3h-2.4a.2.2 0 0 1 0-.3h.2c.5-.1.5-.2.5-1.1zm3-3.9c0-.7 0-.8-.4-1.1h-.1a.2.2 0 0 1 0-.3l1.4-.5h.1c0 .4-.1 1-.1 1.6v2.4c0 .2.1.3.1.3a2.9 2.9 0 0 1 1.5-.4 2.4 2.4 0 0 1 2.4 2.5 2.8 2.8 0 0 1-2.9 2.9l-1.1-.2-.5-.2-.3.2h-.2v-1.1zm.9 5.4a1.8 1.8 0 0 0 .3 1.1 1.2 1.2 0 0 0 1 .4c1.2 0 1.7-1 1.7-2.1s-.7-2.3-1.9-2.3l-.9.2c-.1.1-.2.2-.2.7zm5.7-1.9c0-.5 0-.6-.3-.8h-.1a.2.2 0 0 1 0-.2l1.3-.6h.1c0 .4-.1 1.1-.1 1.6V78c0 .9 0 1 .5 1.1h.3a.2.2 0 0 1 0 .3h-2.4a.2.2 0 0 1 0-.3h.3c.5-.1.5-.2.5-1.1zm1.1-3.6a.7.7 0 0 1-1.3 0 .7.7 0 0 1 .7-.7.6.6 0 0 1 .6.7zm4 4.6c.2-.1.2-.2.2-.4v-.6c0-.5-.1-1.1-.9-1.1s-.8.2-.8.6 0 .4-.1.4l-.7.2a.2.2 0 0 1-.2-.2c0-.7 1.4-1.6 2.4-1.6s1.4.5 1.3 1.5V78c0 .6.1 1.1.6 1.1h.5v.2a1.3 1.3 0 0 1-1.1.6 1 1 0 0 1-.8-.4l-.2-.2-.5.3a1.9 1.9 0 0 1-.9.3 1.3 1.3 0 0 1-.9-.3 1.2 1.2 0 0 1-.4-.9c0-.5.2-.8 1.1-1.1zm-.8 2.2a1.4 1.4 0 0 0 .8-.3c.2-.2.2-.3.2-.6v-.7c0-.1-.1-.2-.1-.2h-.5c-.7.3-1.1.4-1.1.9a.8.8 0 0 0 .7.9z"/></svg>