<svg xmlns="http://www.w3.org/2000/svg" width="754" height="92" viewBox="0 0 754 92"><defs><style>.a,.b{fill:none;}.a{stroke:#929497;stroke-miterlimit:10;}.c{fill:#8b8b8b;}.c,.d{fill-rule:evenodd;}.d,.e{fill:#fff;}</style></defs><title>logo-creative-gov</title><path class="a" d="M411.628,81.278V.914"/><path class="b" d="M199.859,19.329a8.87,8.87,0,0,0-2.3,0,5.11,5.11,0,0,0-3.5,2.2,5.293,5.293,0,0,0,5.6,8.106,5.111,5.111,0,0,0,3.1-1.9,3.041,3.041,0,0,0,.8-1.6h.3a5.3,5.3,0,0,0,3.4-2.8,5.528,5.528,0,0,0,.5-3.1,5.333,5.333,0,0,0-1.2-3,5.854,5.854,0,0,0-5.7-1.9,1.692,1.692,0,0,0-1,.3Zm0,53.042v7.706h6.6V35.342H194.255V72.271h5.6ZM146.917,42.447a5.262,5.262,0,0,1,1.8,2.8,14.7,14.7,0,0,1,.4,3.6v.4h-2v4.1h-2.4l-5.3.2-2.5.2-3.8.8a15.875,15.875,0,0,0-5.4,2.6,11.182,11.182,0,0,0-4.2,5.6,13.631,13.631,0,0,0-.7,5.305,9.871,9.871,0,0,0,.3,2.4,12.575,12.575,0,0,0,5.1,7.607,16.608,16.608,0,0,0,8.307,2.9,16.143,16.143,0,0,0,3.8-.1,17.639,17.639,0,0,0,4.5-1.2l2.1-1a56.2,56.2,0,0,0,0-5.805h-.1a12.149,12.149,0,0,1-7.706,1.6,10.814,10.814,0,0,1-3.5-1,7.25,7.25,0,0,1-4-7.706,6.414,6.414,0,0,1,3.6-5.1,13.3,13.3,0,0,1,4.8-1.4l4.7-.3h2.2v-3.7h2.2v6.506a12.01,12.01,0,0,1-2.2,2.3,47.1,47.1,0,0,0,.1,6.506,12.412,12.412,0,0,0,2.2-1.8v3.7h8.406V50.854c0-1.2-.1-2.5-.2-3.7a16.991,16.991,0,0,0-.6-3.1,12.491,12.491,0,0,0-2.6-4.8,12.316,12.316,0,0,0-5-3.5,8.8,8.8,0,0,0-2.3-.7h-.1a27.194,27.194,0,0,0-4.9-.5l-3.6.2-4.1.7a33.56,33.56,0,0,0-8.207,3l-1.2.7,2.7,6,1.4-.8a25.2,25.2,0,0,1,7.105-2.6,20.988,20.988,0,0,1,4.3-.5,16.18,16.18,0,0,1,3.1.2A10.814,10.814,0,0,1,146.917,42.447Zm30.124,22.718V42.547h6.805v-7.2h-7V26.935h-8.107v8.407h-3.2a56.9,56.9,0,0,0,.1,7.305h2.5V63.064c0,1.3.1,2.6.1,4a26.969,26.969,0,0,0,.3,4,12.955,12.955,0,0,0,.8,3.4,9.993,9.993,0,0,0,3.8,4.8,10.91,10.91,0,0,0,6.1,1.8h2.6l2-.3c.1-1.2.1-7.006,0-7.406a11.278,11.278,0,0,1-3.2-.2c.2-.3.5-.2.8-.3a14.289,14.289,0,0,0,2.7-.9c0-.6-.1-1.2-.1-1.7l-.3-3.2a12.127,12.127,0,0,1-.1-1.9c0-.2-.1-.3-.1-.5l-.9.5a6.785,6.785,0,0,1-4.4.7ZM68.054,34.541h-2.7a11.577,11.577,0,0,0-4.4,1.2,11.734,11.734,0,0,0-5.5,5.7l-.2.3V35.342H46.237V79.977h9.007V72.471h4.7V60.862s.1-5.2.1-7.906a19.563,19.563,0,0,1,.3-3.4,10.961,10.961,0,0,1,1.4-3.8,6.334,6.334,0,0,1,2.9-2.7l.9-.3a11.322,11.322,0,0,1,2.6,0,29.009,29.009,0,0,1,4.8,1.4v-1.6l.3-3.7.2-2.6v-.5A52.039,52.039,0,0,0,68.054,34.541ZM27.422,42.347h.8a14.274,14.274,0,0,1,3.5,1.1,12.442,12.442,0,0,1,3.9,2.9l.8.7c1-2.3,2.2-4.5,3.2-6.806l-1.5-1.4a11.539,11.539,0,0,0-2.9-2,15.559,15.559,0,0,0-4.1-1.5,14.85,14.85,0,0,0-3.6-.5,28.5,28.5,0,0,0-4.1-.4h-2l-2.8.3a28.158,28.158,0,0,0-5.6,1.8A22.965,22.965,0,0,0,2.7,46.45a21.455,21.455,0,0,0-2.1,6,18.433,18.433,0,0,0-.5,4.1c0,1.2,0,2.3.1,3.5a20.459,20.459,0,0,0,.7,4.2,22.164,22.164,0,0,0,2.4,6,21.06,21.06,0,0,0,6.505,7.106,21.154,21.154,0,0,0,11.109,3.8,26.8,26.8,0,0,0,4.9-.1l1.7-.2V73.072l2-.3a20,20,0,0,0,5.4-1.7,15.026,15.026,0,0,0,3.3-2.3l1.6-1.6-3.3-6.806a13.907,13.907,0,0,1-9.207,5v7.506a11.221,11.221,0,0,1-3.2.4h-2.2a15.983,15.983,0,0,1-3-.6,13.155,13.155,0,0,1-7.106-5.4,16.832,16.832,0,0,1-2.7-8.707,16.193,16.193,0,0,1,.2-3.8,13.987,13.987,0,0,1,1.5-4.9,13.658,13.658,0,0,1,6.9-6.7,13.508,13.508,0,0,1,4.5-1.1,20.7,20.7,0,0,1,4.3.2Zm79.963,30.024h-.2a21.267,21.267,0,0,1-6.605,1.6,19.6,19.6,0,0,1-5.4-.2,12.665,12.665,0,0,1-7.306-4.2,13.568,13.568,0,0,1-2.8-5.3,23.136,23.136,0,0,1-.7-3.8v-.6h23.219v-3.2h9.007v-.2a13.566,13.566,0,0,0,.2-2c0-.8.1-1.6.1-2.4a16.31,16.31,0,0,0-.3-3.1,19.074,19.074,0,0,0-1.5-4.6,15.483,15.483,0,0,0-3.9-5.2,14.644,14.644,0,0,0-3.7-2.4l-.4-.3a22.675,22.675,0,0,0-8.907-2h-1.7l-2.2.2a24.866,24.866,0,0,0-5.905,1.7,21.21,21.21,0,0,0-8.907,7.306,22.453,22.453,0,0,0-3.2,6.6,25.9,25.9,0,0,0-1,6.2c0,1.2,0,2.4.1,3.6.1,1.1.2,2.3.4,3.4a22.726,22.726,0,0,0,2.8,7.506,18.838,18.838,0,0,0,5.7,6.2,21.743,21.743,0,0,0,11.509,3.9,33.8,33.8,0,0,0,5.505-.2,35.5,35.5,0,0,0,4.7-.8l1.7-.5V72.671h.3a19.2,19.2,0,0,0,4.6-2.1,21.074,21.074,0,0,0,2.9-2.3l.8-.8c-.5-.8-3.8-5.4-4.1-5.7a26.146,26.146,0,0,1-4.5,2.8v7c-.2.3-.1.5-.3.6Z"/><path class="b" d="M107.385,45.85a7.629,7.629,0,0,1,1.2,4.2h-1v3.2a.9.9,0,0,1-.1.5H84.467a3.334,3.334,0,0,1,.1-1.4,17.673,17.673,0,0,1,1.5-4.4,12.491,12.491,0,0,1,6.2-6,10.878,10.878,0,0,1,3.1-.8l2.1-.2a12.349,12.349,0,0,1,7.205,2.3,16.557,16.557,0,0,1,2.7,2.6Z"/><path class="b" d="M203.562,26.034h.3a5.3,5.3,0,0,0,3.4-2.8,5.528,5.528,0,0,0,.5-3.1,5.333,5.333,0,0,0-1.2-3,5.854,5.854,0,0,0-5.7-1.9,1.692,1.692,0,0,0-1,.3v3.9a8.87,8.87,0,0,0-2.3,0,5.11,5.11,0,0,0-3.5,2.2,5.293,5.293,0,0,0,5.6,8.106,5.114,5.114,0,0,0,3.1-1.9A3.7,3.7,0,0,0,203.562,26.034Zm-3.7,46.337v7.606h6.6V35.342H194.255V72.271h5.6Zm34.427-6.906-.2-.2-2-4.6-1.7-4.1-2.2-5.1-2-4.5-2.2-5.2-1.8-4.3-.9-2.1c-.8-.1-8.707-.1-9.107,0l15.812,36.929h6.105v7.706h2.6L255.1,35.241H245.9l-3.2,8.407-3.2,8.207-3.8,10.008Zm36.83,7.807v7.506l2.5.3a37.656,37.656,0,0,0,6.7-.3,29.687,29.687,0,0,0,6.5-1.7,22.8,22.8,0,0,0,7.006-4.3l.8-.8-3.7-5.1h-.1l-.3.2a25.064,25.064,0,0,1-5.3,3,25.466,25.466,0,0,1-4.7,1.4l-2.7.3a17.032,17.032,0,0,1-4.5-.2l-2.1-.4V65.165a10.008,10.008,0,0,1-6.305-9.007h6.305v3.5c1.5.1,24.619.1,25.02-.1s.2-1.5.2-2.3a28.877,28.877,0,0,0-.3-5.905,21.01,21.01,0,0,0-2.4-6.905,19.356,19.356,0,0,0-5.9-6.5,20.591,20.591,0,0,0-11.809-3.4l-3.5.2-1.4.3a17.853,17.853,0,0,0-10.308,5.605,19.569,19.569,0,0,0-3.3,5.3,21.339,21.339,0,0,0-1.5,7.906,3.409,3.409,0,0,0,.1,1v1.6a16.713,16.713,0,0,0,.5,3.1,17.722,17.722,0,0,0,3.5,7.306,18.622,18.622,0,0,0,5.3,4.4,22.749,22.749,0,0,0,5.7,2Zm37.329-37.83c-.1,1.3-.1,44.235.1,44.635h19.915a17.4,17.4,0,0,0,3.9-.5,15.635,15.635,0,0,0,6.105-2.9,10.926,10.926,0,0,0,3.9-7.706,10.694,10.694,0,0,0-.1-3.1,9.364,9.364,0,0,0-1.1-3.2,9.939,9.939,0,0,0-4.4-4.2,19.024,19.024,0,0,0-4.6-1.5l-.8-.2,1.5-.5a6.089,6.089,0,0,0,3.1-1.8,10.777,10.777,0,0,0,3.1-7.206,16.231,16.231,0,0,0-.1-2.2,8.879,8.879,0,0,0-.7-2.8,10.434,10.434,0,0,0-5.905-5.4,19.348,19.348,0,0,0-5.8-1.2H308.445Zm75.16,4.1-.4-.4a18.537,18.537,0,0,0-4.3-2.5,27.026,27.026,0,0,0-9.707-1.9h-1.9l-2.5.2a21.913,21.913,0,0,0-16.813,12.11,24.137,24.137,0,0,0-2.3,10.208c0,1.1.1,2.2.2,3.3.1.8.2,1.7.3,2.5a22.474,22.474,0,0,0,2.6,7.1,20.12,20.12,0,0,0,5.5,6.105,23.4,23.4,0,0,0,4.9,2.7,25.889,25.889,0,0,0,8.707,1.7h2.5a18.279,18.279,0,0,0,4-.5,18.947,18.947,0,0,0,8.707-4.1l1.3-1.2-3.1-7.406-.2.2a15.655,15.655,0,0,1-3.4,2.3,18.136,18.136,0,0,1-9.708,1.8,16.5,16.5,0,0,1-3.2-.6,13.358,13.358,0,0,1-6-3.9,15.311,15.311,0,0,1-3.4-9.207,14.79,14.79,0,0,1,.1-2.1,15.808,15.808,0,0,1,1-4.8,12.53,12.53,0,0,1,4.5-5.905,13,13,0,0,1,7.106-2.5,14.81,14.81,0,0,1,4.2.2,18.176,18.176,0,0,1,7.406,3.2l1.2.9Z"/><path class="c" d="M147.017,55.257v-6h2v-.4a14.748,14.748,0,0,0-.4-3.6,5.262,5.262,0,0,0-1.8-2.8V34.941a8.807,8.807,0,0,1,2.3.7,11.687,11.687,0,0,1,5,3.5,12.491,12.491,0,0,1,2.6,4.8,16.991,16.991,0,0,1,.6,3.1c.1,1.2.2,2.5.2,3.7V72.271h-8.206v-3.6a12.362,12.362,0,0,1-2.2,1.8,47.087,47.087,0,0,1-.1-6.5,11.986,11.986,0,0,0,2.2-2.3v-6.6Zm52.942-19.915V71.771c0,.2.1.4-.1.5h-5.6V35.342ZM107.385,45.85c0-.1.1-.2.1-.3V36.643a14.667,14.667,0,0,1,3.7,2.4,15.5,15.5,0,0,1,3.9,5.205,19.074,19.074,0,0,1,1.5,4.6,16.31,16.31,0,0,1,.3,3.1,19.309,19.309,0,0,1-.1,2.4,13.566,13.566,0,0,1-.2,2v.2h-9.007a.6.6,0,0,1-.1-.4v-2.4a.9.9,0,0,0,.1-.5v-3.2h1A7.874,7.874,0,0,0,107.385,45.85ZM55.244,72.571c0-.1-.1-.2-.1-.3V56.558a13.566,13.566,0,0,1,.2-2l.2-1.6a23.731,23.731,0,0,1,.9-3.6,8.43,8.43,0,0,1,1.3-2.7,10.637,10.637,0,0,1,2.9-2.7,8.767,8.767,0,0,1,2.2-1,9.831,9.831,0,0,1,2.4-.3h.2l-.9.3a6.334,6.334,0,0,0-2.9,2.7,10.941,10.941,0,0,0-1.4,3.8,19.56,19.56,0,0,0-.3,3.4c0,2.6-.1,5.205-.1,7.907V72.471h-4.6Zm-27.822.6V65.465a13.91,13.91,0,0,0,9.207-5l3.3,6.8-1.6,1.6a14.993,14.993,0,0,1-3.3,2.3,19.989,19.989,0,0,1-5.4,1.7Zm0-30.825V34.841a14.85,14.85,0,0,1,3.6.5,15.559,15.559,0,0,1,4.1,1.5,11.539,11.539,0,0,1,2.9,2l1.5,1.5c-1,2.3-2.2,4.5-3.2,6.805l-.8-.7a13.637,13.637,0,0,0-3.8-3,10.814,10.814,0,0,0-3.5-1Zm149.319-7.005h-8.107V26.935h8.107Zm23.118-16.013v4.6s.1,1.2.1,1.8h.4a8.222,8.222,0,0,0,2.2.2h.9a3.041,3.041,0,0,1-.8,1.6,5.111,5.111,0,0,1-3.1,1.9,5.381,5.381,0,0,1-5.905-2.7,5.488,5.488,0,0,1,.3-5.405,5.108,5.108,0,0,1,3.5-2.2,9.753,9.753,0,0,1,2.4.2ZM107.586,72.771v-.5c.2-.2.1-.4.1-.6v-7a26.085,26.085,0,0,0,4.5-2.8,60.975,60.975,0,0,1,4.1,5.7l-.8.8a21,21,0,0,1-2.9,2.3,19.2,19.2,0,0,1-4.6,2.1Zm72.958.3a3.9,3.9,0,0,1-2-1.3,7.9,7.9,0,0,1-1.2-3,12.265,12.265,0,0,1-.2-1.9,8.623,8.623,0,0,1-.1-1.6l1,.3a6.687,6.687,0,0,0,4.4-.7l.9-.5c0,.2.1.3.1.5,0,.6.1,1.3.1,1.9l.3,3.2c0,.6.1,1.2.1,1.7a14.191,14.191,0,0,1-2.7.9c-.1.3-.5.3-.7.5ZM68.054,42.747V34.541a26.151,26.151,0,0,1,5.4,1.2v.5l-.2,2.6-.3,3.7v1.6A45.128,45.128,0,0,0,68.054,42.747Zm203.062-7.906v6.806l-.6.3a6.774,6.774,0,0,0-2.6,1.8,11.1,11.1,0,0,0-2.8,4.8,5.027,5.027,0,0,0-.2,1.2h6.305v6.305h-6.305a10.008,10.008,0,0,0,6.305,9.007v8.007h-.1a21.351,21.351,0,0,1-5.5-2,17.344,17.344,0,0,1-5.3-4.4,17.712,17.712,0,0,1-3.5-7.3,16.713,16.713,0,0,1-.5-3.1v-1.5c0-.3-.1-.7-.1-1a21.339,21.339,0,0,1,1.5-7.906,19.594,19.594,0,0,1,3.3-5.3,17.311,17.311,0,0,1,10.308-5.6Zm-36.83,30.624c0,.3-.1.5-.1.8v6h-6.105L212.269,35.342h9.107l.9,2.1,1.8,4.4,2.2,5.2,2,4.5,2.2,5.1,1.7,4.1,2,4.6Z"/><path class="d" d="M107.586,56.558v3.3H84.367v.6a23.136,23.136,0,0,0,.7,3.8,14.591,14.591,0,0,0,2.8,5.2,12.67,12.67,0,0,0,7.306,4.2,19.6,19.6,0,0,0,5.4.2,21.267,21.267,0,0,0,6.605-1.6h.2v7.306l-1.7.5a35.483,35.483,0,0,1-4.7.8,33.783,33.783,0,0,1-5.5.2,21.613,21.613,0,0,1-11.209-3.9,19.555,19.555,0,0,1-5.6-6.2,22.726,22.726,0,0,1-2.8-7.506c-.2-1.1-.3-2.3-.4-3.4-.1-1.2-.1-2.4-.1-3.6a25.9,25.9,0,0,1,1-6.2,22.211,22.211,0,0,1,3.1-6.6,21.21,21.21,0,0,1,8.907-7.306,24.866,24.866,0,0,1,5.905-1.7l2.2-.2h1.7a22.675,22.675,0,0,1,8.907,2l.4.2V45.55c0,.1-.1.2-.1.3a13.231,13.231,0,0,0-2.7-2.6,12.349,12.349,0,0,0-7.205-2.3l-2.1.2a10.878,10.878,0,0,0-3.1.8,12.715,12.715,0,0,0-6.2,5.9,17.656,17.656,0,0,0-1.5,4.4,3.334,3.334,0,0,0-.1,1.4h23.019v2.4A.749.749,0,0,0,107.586,56.558ZM27.422,73.172v7.606l-1.7.2a26.783,26.783,0,0,1-4.9.1,21.154,21.154,0,0,1-11.109-3.8A21.079,21.079,0,0,1,3.2,70.169a22.157,22.157,0,0,1-2.4-6,20.439,20.439,0,0,1-.7-4.2c0-1.2-.1-2.3-.1-3.5a26.331,26.331,0,0,1,.6-3.9,22.1,22.1,0,0,1,2.1-6.1A22.491,22.491,0,0,1,18.615,34.741l2.8-.3h1.8a28.5,28.5,0,0,1,4.1.4v7.506h-.8a20.7,20.7,0,0,0-4.3-.2,13.508,13.508,0,0,0-4.5,1.1,13.658,13.658,0,0,0-6.9,6.705,13.987,13.987,0,0,0-1.5,4.9,15.359,15.359,0,0,0-.2,3.7,16.832,16.832,0,0,0,2.7,8.707,13.155,13.155,0,0,0,7.106,5.4,15.983,15.983,0,0,0,3,.6h2.2a11.221,11.221,0,0,0,3.2-.4ZM68.054,42.747a11.322,11.322,0,0,0-2.6,0h-.2a9.831,9.831,0,0,0-2.4.3,8.767,8.767,0,0,0-2.2,1,9.379,9.379,0,0,0-2.9,2.7,8.43,8.43,0,0,0-1.3,2.7,23.731,23.731,0,0,0-.9,3.6l-.2,1.6a13.566,13.566,0,0,0-.2,2V72.271c0,.1.1.2.1.3v7.506H46.237V35.342h9.007v6.405l.2-.3a12.383,12.383,0,0,1,5.5-5.8,11.577,11.577,0,0,1,4.4-1.2h2.7v8.306Zm112.49,30.325a11.515,11.515,0,0,0,3.2.2c.1.4.1,6.3,0,7.406l-2,.3h-2.6a10.91,10.91,0,0,1-6.1-1.8,10.482,10.482,0,0,1-3.8-4.8,12.955,12.955,0,0,1-.8-3.4,26.969,26.969,0,0,1-.3-4c0-1.3-.1-2.6-.1-4V42.447h-2.5c-.1-.4-.1-6.105-.1-7.306h18.314v7.306h-6.805V65.065a8.607,8.607,0,0,0,.1,1.6,12.278,12.278,0,0,0,.2,1.9,7.88,7.88,0,0,0,1.2,3,4.085,4.085,0,0,0,2.1,1.5ZM147.017,55.257v3.6h-2.2l-4.7.3a13.322,13.322,0,0,0-4.8,1.4,6.414,6.414,0,0,0-3.6,5.1,7.25,7.25,0,0,0,4,7.706,10.839,10.839,0,0,0,3.5,1,12.149,12.149,0,0,0,7.706-1.6h.1a56.2,56.2,0,0,1,0,5.8l-2.1,1a17.639,17.639,0,0,1-4.5,1.2,17.527,17.527,0,0,1-12.11-2.8,12.57,12.57,0,0,1-5.1-7.606,9.872,9.872,0,0,1-.3-2.4,13.629,13.629,0,0,1,.7-5.3,11.178,11.178,0,0,1,4.2-5.6,15.875,15.875,0,0,1,5.4-2.6l3.8-.8,2.5-.2,5.3-.2h2.4a15.043,15.043,0,0,0-.2,2Zm52.942-19.915h6.5V79.977h-6.6V72.271a4.331,4.331,0,0,0,.1-.5Zm-52.942-.4v7.506a8.959,8.959,0,0,0-3.5-1.1,16.175,16.175,0,0,0-3.1-.2,20.988,20.988,0,0,0-4.3.5,25.2,25.2,0,0,0-7.105,2.6l-1.4.8-2.7-6.005,1.2-.7a35.148,35.148,0,0,1,8.207-3l4.1-.7,3.6-.2a27.194,27.194,0,0,1,4.9.5Zm52.842-15.612v-3.9a1.693,1.693,0,0,1,1-.3,5.857,5.857,0,0,1,5.7,1.9,5.33,5.33,0,0,1,1.2,3,5.528,5.528,0,0,1-.5,3.1,5.3,5.3,0,0,1-3.4,2.8h-1.2a8.211,8.211,0,0,1-2.2-.2h-.4a11.509,11.509,0,0,1-.1-1.8C199.959,23.332,199.859,20.83,199.859,19.329ZM308.445,35.442H326.56a19.348,19.348,0,0,1,5.8,1.2,10.138,10.138,0,0,1,5.905,5.4,8.879,8.879,0,0,1,.7,2.8,16.231,16.231,0,0,1,.1,2.2,10.777,10.777,0,0,1-3.1,7.206,6.526,6.526,0,0,1-3.1,1.8l-1.5.5.8.2a17.7,17.7,0,0,1,4.6,1.5,9.934,9.934,0,0,1,4.4,4.2,9.364,9.364,0,0,1,1.1,3.2,10.693,10.693,0,0,1,.1,3.1,10.926,10.926,0,0,1-3.9,7.706,14.367,14.367,0,0,1-6.105,2.9,17.4,17.4,0,0,1-3.9.5H308.546Zm9.608,24.919c-.1.7-.1,12.21,0,12.61h8.307a6.747,6.747,0,0,0,3.4-1,5.813,5.813,0,0,0,2.2-2.2,6.454,6.454,0,0,0,.5-4.9,5.784,5.784,0,0,0-3.7-3.9,12.108,12.108,0,0,0-3.8-.6Zm0-6.4h1.3a58.178,58.178,0,0,0,5.905-.1,5.074,5.074,0,0,0,3.9-2.2,5.671,5.671,0,0,0,.8-5.2,5.144,5.144,0,0,0-3.8-3.6,8.337,8.337,0,0,0-2.2-.3h-6.005Zm65.552-14.411-2.9,7.806-1.2-.9a18.176,18.176,0,0,0-7.406-3.2,14.846,14.846,0,0,0-4.2-.2,12.989,12.989,0,0,0-7.106,2.5,12.525,12.525,0,0,0-4.5,5.9,15.843,15.843,0,0,0-1,4.8c0,.7-.1,1.4-.1,2.1a14.537,14.537,0,0,0,3.5,9.107,13.342,13.342,0,0,0,6,3.9,16.5,16.5,0,0,0,3.2.6,18.141,18.141,0,0,0,9.707-1.8,15.638,15.638,0,0,0,3.4-2.3l.2-.2,3.1,7.406-1.3,1.2a18.947,18.947,0,0,1-8.707,4.1,18.219,18.219,0,0,1-4,.5h-2.5a25.889,25.889,0,0,1-8.707-1.7,23.4,23.4,0,0,1-4.9-2.7,20.136,20.136,0,0,1-5.5-6.105,22.488,22.488,0,0,1-2.6-7.1c-.1-.8-.2-1.7-.3-2.5-.1-1.1-.2-2.2-.2-3.3a24.14,24.14,0,0,1,2.3-10.208,21.913,21.913,0,0,1,16.813-12.11l2.5-.2h1.9a27.026,27.026,0,0,1,9.707,1.9,16.683,16.683,0,0,1,4.3,2.5Zm-112.489-4.7,1.4-.3,3.5-.2a20.879,20.879,0,0,1,11.809,3.7,19.356,19.356,0,0,1,5.9,6.505,21.845,21.845,0,0,1,2.4,6.905,29.245,29.245,0,0,1,.3,5.905,17.883,17.883,0,0,1-.2,2.3c-.1.8-23.519.2-25.02.1V53.756h16.813c-.1-.7-.1-1.3-.2-1.9a14.687,14.687,0,0,0-1.9-4.9,11.96,11.96,0,0,0-10.508-5.905,8.435,8.435,0,0,0-2.7.4l-1.5.4v-.7c0-2.1-.1-4.2-.1-6.3Zm-36.83,30.624,1.4-3.6,3.8-10.008,3.1-8.207,3.2-8.407H255L236.688,80.077h-2.6V66.466a2.97,2.97,0,0,1,.2-1Zm36.83,7.807h.1l2.1.4a17.032,17.032,0,0,0,4.5.2l2.7-.3a25.443,25.443,0,0,0,4.7-1.4,25.064,25.064,0,0,0,5.3-3l.3-.2h.1l3.7,5.1-.8.8a24.041,24.041,0,0,1-7.006,4.3,29.631,29.631,0,0,1-6.5,1.7,37.652,37.652,0,0,1-6.7.3l-2.5-.3Z"/><path class="b" d="M318.153,60.261h6.906a12.108,12.108,0,0,1,3.8.6,5.782,5.782,0,0,1,3.7,3.9,6.454,6.454,0,0,1-.5,4.9,5.813,5.813,0,0,1-2.2,2.2,6.747,6.747,0,0,1-3.4,1h-8.307C318.053,72.671,318.053,60.962,318.153,60.261Zm0-6.405V42.347h6a8.349,8.349,0,0,1,2.2.3,5.147,5.147,0,0,1,3.8,3.6,5.675,5.675,0,0,1-.8,5.2,5.077,5.077,0,0,1-3.9,2.2,58.178,58.178,0,0,1-5.905.1Zm-47.037-.1v-3.9h-6.305c.1-.4.1-.8.2-1.2a11.1,11.1,0,0,1,2.8-4.8,6.774,6.774,0,0,1,2.6-1.8l.6-.3,1.5-.4a8.435,8.435,0,0,1,2.7-.4,11.96,11.96,0,0,1,10.508,5.905,14.687,14.687,0,0,1,1.9,4.9,12.265,12.265,0,0,1,.2,1.9H271.116Z"/><path class="e" d="M595.174,89.885H733.283v1.6H595.174Zm3.6-59.748c0-2.8-.1-3.5-2.2-3.6h-1.3c-.3-.1-.1-.9,0-.9l9.007-.3a16.621,16.621,0,0,1,7,1.1,4.877,4.877,0,0,1,3.2,4.7c0,2.7-1.7,4.2-4.3,5.2,0,.4.4.5.8.5a6.372,6.372,0,0,1,5.605,6.305c0,4.4-3.6,7.406-11.209,7.406h-9.808a.565.565,0,0,1-.1-.9h.8c2.3-.4,2.3-.8,2.3-4.7Zm3.5,4.9c0,1.1,0,1.1,2.2,1.1,4.3-.1,6.605-1.3,6.605-4.8s-3.1-5.1-6.305-5.1l-1.9.3c-.4.1-.5.3-.5.9Zm0,8.807c0,1.3.1,3.2.9,4.2a4.536,4.536,0,0,0,3.4,1.1c3.8,0,6.605-1.5,6.605-5.2,0-3.8-1.6-6.505-8.307-6.505-2.3,0-2.4.3-2.4.9ZM646.014,33.84c0-3.4-.1-4-2.2-4.2h-.9c-.3-.1-.1-.7.1-.8h9.007c.3.1.3.7.1.8h-.9c-2.2.1-2.2.7-2.2,4.2V45.45c0,3.4.1,3.9,2.2,4.2h.9c.3.1.1.7-.1.8h-9.007a.528.528,0,0,1-.2-.7v-.1h.9c2.2-.3,2.2-.7,2.2-4.2V33.84ZM665.93,45.45c0,3.4,0,3.9,2,4h1.1a1.1,1.1,0,0,1,0,.8h-9.107a.6.6,0,0,1,0-.8h1.2c1.9-.1,2-.7,2-4V30.938c0-.9,0-1.1-.9-1.1h-1.9c-1.5,0-3.2,0-4.2.8a5.125,5.125,0,0,0-1.5,2.3.652.652,0,0,1-.9-.2h0a41.935,41.935,0,0,0,1.2-4.8h.7c.3,1.1,1.3.9,2.8.9h13.611c1.9,0,2.2,0,2.7-.9h.7a16.7,16.7,0,0,0-.5,5,.469.469,0,0,1-.8,0,8.455,8.455,0,0,0-.8-2.4,7.415,7.415,0,0,0-3.9-.8h-2.4c-1.1,0-.9,0-.9,1.1V45.45Zm14.411-11.61c0-3.4-.1-4-2.2-4.2h-.9c-.3-.1-.1-.7.1-.8h9.007c.3.1.3.7.1.8h-.9c-2.2.1-2.2.7-2.2,4.2V45.45c0,3.4.1,3.9,2.2,4.2h.9c.3.1.1.7-.1.8h-9.007a.529.529,0,0,1-.2-.7v-.1h.9c2.2-.3,2.2-.7,2.2-4.2V33.84Zm16.113,16.814a14.85,14.85,0,0,1-5.9-1.2,14.116,14.116,0,0,1-1.1-4.6c.1-.3.8-.3.9-.1a6.589,6.589,0,0,0,6.606,4.8c3.2,0,4.7-1.7,4.7-3.8,0-2-.4-3-3.1-4.6l-3.6-2c-1.9-1.1-4.2-3-4.2-5.505s2.8-5.5,7.806-5.5a13.957,13.957,0,0,1,3.5.4h1.3a13.383,13.383,0,0,1,.7,3.9.761.761,0,0,1-.9.1,4.723,4.723,0,0,0-5.2-3.6c-3.8,0-4.6,2.2-4.6,3.6,0,1.5,1.9,3.2,3.2,4l3.1,1.6c2.4,1.2,4.7,3.1,4.7,6.2s-2.9,6.305-7.906,6.305ZM715.77,39.745c-1.6,0-1.7,0-1.7,1.1v4.6c0,3.4.1,3.9,2.2,4h.9c.3.1.1.7-.1.8h-8.507a.527.527,0,0,1-.2-.7v-.1h.5c1.9-.3,2-.7,2-4V33.74c0-3.4-.3-3.9-2-4h-.9c-.3-.1-.1-.7.1-.8h8.507c.3.1.3.7.1.8h-.7c-2,.1-2.2.7-2.2,4v3.8c0,.9.1,1.1,1.7,1.1h10.008c1.6,0,1.7,0,1.7-1.1v-3.8c0-3.4-.1-3.9-2.2-4h-.7c-.3-.1-.1-.7.1-.8h8.307c.3.1.3.7.1.8h-.7c-2,.1-2.2.7-2.2,4V45.45c0,3.4.1,3.8,2.2,4h.8c.3.1.1.7-.1.8h-8.206a.527.527,0,0,1-.2-.7v-.1h.7c2.2-.3,2.2-.7,2.2-4v-4.6c0-.9-.1-1.1-1.7-1.1ZM578.861,57.459a17.008,17.008,0,0,1,10.608-3.4,32.792,32.792,0,0,1,7.006.9h1.1c0,.9.3,3.4.5,5.805a.785.785,0,0,1-1.1.1c-.5-2.7-2.3-5.605-8.106-5.605s-11.009,3.8-11.009,11.81,5.1,12.81,11.409,12.81a8.455,8.455,0,0,0,8.206-5.6.91.91,0,0,1,1.1.1,15.169,15.169,0,0,1-1.9,5.4l-1.3.4a21.628,21.628,0,0,1-6.205.9,16.119,16.119,0,0,1-9.808-2.6,12.562,12.562,0,0,1-5.5-10.809,12.844,12.844,0,0,1,5-10.208Zm21.417,12.61c0-6.505,5.1-11.409,12.109-11.409s11.81,5.4,11.81,11.009a11.3,11.3,0,0,1-11.309,11.309h-.6C604.881,81.078,600.278,75.874,600.278,70.069Zm20.416.7c0-5.405-2.4-11.009-9.007-11.009-3.5,0-8.107,2.3-8.107,9.407,0,4.8,2.4,11.009,9.108,11.009C616.791,79.977,620.694,77.175,620.694,70.77Zm41.733-3.5c0-2-.1-5.8-.7-6.7a2.195,2.195,0,0,0-1.7-.7h-.8a.529.529,0,0,1,.1-.8h7.606a.529.529,0,0,1,.2.7v.1h-.9a2.134,2.134,0,0,0-1.7.8c-.5,1.1-.5,4.8-.5,6.6v3.6c0,2.8-.5,5.8-2.4,7.706a9.465,9.465,0,0,1-6.605,2.4,10.617,10.617,0,0,1-6.5-1.7c-1.9-1.5-2.7-3.8-2.7-7.706V64.064c0-3.4-.1-3.9-2-4h-.8c-.3-.1-.1-.7.1-.8h8.506c.3.1.3.7.1.8h-.8c-2,.1-2,.7-2,4V71.07c0,5.2,1.7,8.607,7.006,8.607,5.2,0,6.9-3.6,6.9-8.607Zm39.832-4.1c0-2.4-.1-3.1-1.9-3.2h-1.2c-.1-.1-.3-.8,0-.8l8.207-.3a16.908,16.908,0,0,1,6.3.9,4.212,4.212,0,0,1,2.8,4c0,2.3-1.6,3.5-3.9,4.4,0,.3.3.4.7.5a5.55,5.55,0,0,1,5.1,5.5c0,3.8-3.2,6.305-10.108,6.305h-8.908a.527.527,0,0,1-.2-.7v-.1h.7c2-.3,2-.7,2-4Zm3.1,4.3c0,.9,0,.9,2,.9s5.9-1.1,5.9-4.2-2.8-4.4-5.605-4.4h-1.7c-.4.1-.5.3-.5.8v6.905Zm0,7.606a6.231,6.231,0,0,0,.8,3.5,4,4,0,0,0,3,.9c3.4,0,5.9-1.3,5.9-4.6,0-3.2-1.5-5.6-7.506-5.6-2,0-2.2.1-2.2.8ZM640.51,49.453h-1.3a3.608,3.608,0,0,1-2.4-2.4l-3.1-5.4c-.5-.9-1.1-2.2-2.3-2.3,3.2-.4,6.1-2.2,6.1-5.405s-3.6-5.2-7.306-5.2H619.793c-.7,0-.7.1-.7.5s.3.4.9.4a2.86,2.86,0,0,1,2.6,2.8V46.45c0,2,.1,2.7-2,2.8h-1.5a.527.527,0,0,0,.1.8H629a.527.527,0,0,0,.2-.7v-.1h-1.3c-2.2-.1-2-.8-2-2.8v-5.4a5.291,5.291,0,0,1,.1-1.3c.1-.3.5-.1.8-.1,3,0,2.8.3,4.3,2.7l3.8,6.7c.3.5.5,1.2,1.3,1.2h4.4a.8.8,0,0,0-.1-.8ZM627.5,38.844c-.7,0-2,.3-2-.7v-6.1c0-2.4.1-2.8,3-2.8s5.5,1.7,5.5,5a4.012,4.012,0,0,1-1.7,3.5A8.47,8.47,0,0,1,627.5,38.844Zm.6,25.32c0-3.4-.1-3.9-2.3-4h-.9c-.3-.1-.1-.7.1-.8H634c.3.1.3.7.1.8h-.8c-2.2.1-2.2.7-2.2,4V75.473c0,2,.1,2.8.8,3.5s1.1.8,3.9.8,3.8-.1,4.3-.4a6.61,6.61,0,0,0,2.3-3.2c.3-.1.9,0,.9.1a19.082,19.082,0,0,1-1.5,4.6H624.9a.528.528,0,0,1-.2-.7v-.1h1.1c2-.1,2.2-.7,2.2-4Zm95.476,0c0-3.4-.1-4-2.2-4.2h-.8c-.3-.1-.1-.7.1-.8h8.607c.3.1.3.7.1.8h-.8c-2,.1-2.2.7-2.2,4.2v11.61c0,3.4.1,3.9,2.2,4.2h.8c.3.1.1.7-.1.8h-8.707a.528.528,0,0,1-.2-.7v-.1h.8c2-.3,2.2-.7,2.2-4.2ZM695.553,79.777h-.5a1.27,1.27,0,0,1-.9-.4,5.083,5.083,0,0,1-.4-2.4V62.763c0-.7-.1-2,.3-2.4a2.019,2.019,0,0,1,1.1-.3h1.3c.3-.1.1-.7-.1-.8h-5.1a1.191,1.191,0,0,0-1.1.4l-7.806,16.113-6.906-15.613c-.3-.5-.3-.9-.9-.9h-5.405c-.3.1-.3.7-.1.8h1.5c1.5.1,1.6.4,1.5,2l-.9,15.112c-.1,1.5-.1,2.3-1.7,2.4h-1.5a.529.529,0,0,0,.1.8h7.907a.527.527,0,0,0,.2-.7v-.1h-1.3c-2.3-.1-2.3-1.7-2.2-3.8l1.1-14.112h.3l7.306,17.514c.1.3.1.7.5.7s.4-.4.5-.7l8.306-17.914h.3V76.875c0,.7.1,1.9-.5,2.4a4.177,4.177,0,0,1-1.5.4h-1.3a.529.529,0,0,0,.1.8h9.107a.527.527,0,0,0,.2-.7v-.1Zm58.347.1h-.7c-1.3-.3-1.9-2-2.4-3.2l-7.205-17.113c-.1-.3-.3-.7-.5-.7s-.5.5-.7.8l-6.906,16.913a11.218,11.218,0,0,1-1.3,2.7,2.1,2.1,0,0,1-1.3.5h-1.5a.53.53,0,0,0,.1.8h7.906a.529.529,0,0,0,.2-.7v-.1h-1.3c-.8-.1-1.9-.3-1.9-1.2a10.57,10.57,0,0,1,.5-1.9l1.1-2.6c.5-1.2.3-1.3,1.7-1.3h4.8c1.7,0,1.5,0,2.2,1.7l1.1,2.6a4.944,4.944,0,0,1,.5,1.6c0,.8-.9.9-1.7.9h-1.3a.529.529,0,0,0,.1.8H754.1c-.1,0,0-.3-.2-.5Zm-9.408-8.106h-4.2c-.1,0-1.3.1-1.3-.3v-.4l2.6-6.2c.1-.1.3-1.1.7-1.1s.5.9.5,1.1l2.4,5.805c0,.1.3.7.3.8s-.8.3-1,.3Z"/><path class="d" d="M490.891,42.247l-12.61-25.32.8-.3L489.59,36.643l-8.908-20.717.8-.4,10.108,22.718-8.607-23.419.8-.3,8.106,21.117-6.305-21.818.8-.3,8.507,26.922,1.7-.5a237.494,237.494,0,0,0-2.7-23.819A233.7,233.7,0,0,0,500.5,39.245h1.7L500,10.822h.8L503,33.34l-.4-22.618h.8l.8,24.92.8-24.92h.8l-.4,22.718,2.2-22.518h.8l-2.3,28.122h1.7a233.682,233.682,0,0,0,6.605-23.118,239.523,239.523,0,0,0-2.6,23.919l1.7.5,8.306-26.821.8.3-6.105,21.818,8.106-21.117.8.3-8.507,23.419,10.108-22.718.8.4-8.707,20.817,10.508-20.016.8.3-12.81,25.12,1.5.8a210.325,210.325,0,0,0,14.812-19.016c-4.1,6.906-7.907,14.012-11.309,21.217l1.5,1.1,17.914-21.617.7.5L528.621,42.847l15.512-16.413.7.5L528.02,45.55l17.914-17.314.5.7L530.522,44.949l17.214-14.712.5.5L527.22,49.353l1.1,1.2c7.206-3.7,14.212-7.707,21.017-12.11a212.474,212.474,0,0,0-18.615,15.512l.9,1.6,24.82-13.511.4.7L537.228,53.956l20.416-9.507.4.8-19.115,9.208h.4l19.416-7.806.3.8-18.014,7.706h.4l12.009-4,1.7-1.2.5.4,3.9-1.3.3.8-3.4,1.2,5,3.8-6.605-3.6-9.708,6.706-6.5-2.2c-2.2,1.1-15.713,10.108-15.713,10.108l-5.2-3.8-5.5-1.1-7.406-5.4-8.507,5.8s-9.508,5.505-9.808,5.505-11.409-8.907-11.409-8.907l-5.1-5.405-4.3,2.2h-.1l-3.4-1.1-4-2.2-11.309,5.1,8.306-4.7-6.2-2.2.3-.8,7,2.3.9-.5.4-.3-7.706-3.2.3-.8,16.814,7.106.5-.3-16.813-8.207.4-.8,17.914,8.306h.3L451.96,42.647l.4-.7,25.02,13.611.8-1.5a234.256,234.256,0,0,0-18.714-15.612,219.806,219.806,0,0,0,21.016,12.11l1.1-1.3L460.366,30.538l.5-.5L478.08,44.749,462.168,28.736l.5-.7L480.482,45.45,463.769,26.835l.7-.5,15.512,16.513L465.871,25.133l.7-.5L484.586,46.55l1.3-1.1a219.578,219.578,0,0,0-11.409-21.417,227.893,227.893,0,0,0,14.911,19.115Zm51.941,13.911,2.4.9,5.2-3.6Z"/><path class="e" d="M443.253,66.066a59.054,59.054,0,0,1,1.3-9.408A61.282,61.282,0,0,1,504.6,8.62a61.912,61.912,0,0,1,59.248,46.437,69.416,69.416,0,0,1,1.9,15.112,61.215,61.215,0,0,1-1.1,10.409v.5l-.8.5-.5.4-.7.5h.1c-8.207,5.4-16.413,7.106-28.023,8.507-11.609,1.3-20.716-.7-31.525-3.1l-10.208-2.6a232.521,232.521,0,0,0-24.92-4.7,71.041,71.041,0,0,0-21.116,1.1h-1.3l-1.2.3-.3-1.2a57.888,57.888,0,0,1-1.1-11.009c0-1.2,0-2.6.1-3.8Zm1.2.6c0,1.1-.1,2.2-.1,3.2a56.631,56.631,0,0,0,1.1,10.809l1.3-.3c5.5-.9,14.112-2,21.518-1.1,11.709,1.5,19.115,3.5,31.325,6.2s21.517,5.405,34.827,3.9,19.616-3.1,27.422-8.207l.7-.4.8-.7a58.582,58.582,0,0,0,.9-10.208,68.9,68.9,0,0,0-1.6-14.311,56.2,56.2,0,0,0-2.6-7.907A60.635,60.635,0,0,0,504.2,9.721a59.966,59.966,0,0,0-58.546,46.937v.3a59.92,59.92,0,0,0-1.2,8.506Z"/></svg>